{"glyphs":{"0":{"ha":788,"x_min":22,"x_max":763,"o":"m 22 478 q 74 724 22 610 q 212 903 126 838 q 392 969 297 969 q 588 903 503 969 q 718 725 674 836 q 763 478 763 614 q 722 226 763 338 q 597 44 682 114 q 392 -26 511 -26 q 202 43 288 -26 q 69 228 117 113 q 22 478 22 343 m 392 718 q 285 655 335 718 q 236 497 236 592 q 285 331 236 392 q 392 271 335 271 q 501 329 456 271 q 547 497 547 388 q 502 656 547 594 q 392 718 457 718 z "},"1":{"ha":599,"x_min":18,"x_max":529,"o":"m 50 292 l 167 292 l 174 736 l 75 717 l 18 928 l 400 976 l 439 292 l 511 292 l 529 11 l 33 11 l 50 292 z "},"2":{"ha":650,"x_min":17,"x_max":631,"o":"m 486 261 q 542 282 514 268 q 583 307 569 296 l 597 317 l 629 13 q 53 13 297 14 q 42 55 49 29 q 26 139 35 81 q 21 231 17 197 q 58 351 25 289 q 136 464 92 414 q 225 557 181 514 q 303 633 269 600 q 342 679 336 665 q 333 725 354 713 q 278 733 313 738 q 245 726 263 732 q 213 712 228 719 q 186 697 199 704 q 167 683 174 689 l 160 678 l 47 897 q 55 903 50 899 q 77 920 60 908 q 113 942 94 932 q 160 964 131 953 q 219 982 189 975 q 273 990 246 988 q 335 992 300 993 q 401 983 371 990 q 463 956 432 975 q 518 906 494 936 q 558 828 542 876 q 581 718 575 779 q 557 585 586 651 q 483 469 528 519 q 392 378 438 419 q 315 307 347 338 q 285 261 283 276 q 299 243 285 249 q 341 239 314 238 q 403 246 368 240 q 486 261 438 251 z "},"3":{"ha":631,"x_min":21,"x_max":608,"o":"m 42 328 q 67 315 51 322 q 126 292 83 307 q 204 273 168 278 q 277 279 240 268 q 329 322 314 290 q 332 342 331 329 q 325 373 333 356 q 303 406 317 390 q 263 435 290 422 q 197 453 235 449 q 178 489 183 454 q 176 558 172 524 q 188 594 181 593 q 278 619 254 606 q 317 675 301 633 q 308 721 328 708 q 251 729 288 733 q 220 722 238 728 q 188 707 203 715 q 160 691 174 699 q 140 678 147 683 l 133 672 l 22 894 q 43 913 29 901 q 101 947 57 924 q 193 982 146 971 q 250 991 221 988 q 317 992 279 994 q 390 983 356 990 q 460 955 425 975 q 519 905 494 935 q 560 826 544 875 q 574 713 575 776 q 558 644 574 675 q 522 594 542 613 q 474 561 501 575 q 432 542 447 547 q 404 535 417 538 q 423 537 413 536 q 453 535 433 538 q 492 527 474 533 q 530 504 510 521 q 565 463 550 488 q 592 397 581 439 q 604 303 603 356 q 560 113 607 181 q 443 22 514 46 q 397 10 419 14 q 348 3 374 6 q 292 -1 322 0 q 223 -3 261 -3 q 136 -3 185 -3 q 26 -3 88 -3 l 42 328 z "},"4":{"ha":749,"x_min":19,"x_max":719,"o":"m 718 24 l 447 24 l 453 310 q 281 253 369 246 q 171 300 218 257 q 97 408 124 343 q 51 549 69 472 q 28 703 33 626 q 22 842 24 779 q 22 943 19 904 l 24 982 l 294 982 q 294 957 294 974 q 294 893 293 940 q 296 803 294 846 q 301 706 297 760 q 312 610 306 651 q 330 538 318 569 q 357 501 342 507 q 390 501 375 493 q 418 531 406 510 q 440 581 431 553 q 458 647 450 610 l 464 978 l 676 978 l 718 24 z "},"5":{"ha":793,"x_min":68,"x_max":772,"o":"m 767 268 q 733 142 761 196 q 662 58 704 88 q 572 13 619 29 q 473 -6 525 -4 q 382 -6 421 -8 q 311 4 343 -3 q 203 44 264 15 q 106 97 143 74 l 69 121 l 190 364 q 224 333 203 351 q 296 281 244 314 q 382 244 347 247 q 449 249 421 240 q 490 274 478 258 q 502 311 503 290 q 489 351 501 332 q 427 396 478 367 q 324 452 376 425 q 229 517 272 479 q 185 586 186 554 q 188 631 183 601 q 199 694 192 660 q 214 766 206 728 q 231 839 222 804 q 246 901 239 874 q 257 946 253 929 l 261 963 l 757 963 l 732 732 q 572 765 650 753 q 529 772 546 769 q 500 771 513 774 q 481 767 488 768 q 469 753 475 765 q 462 735 464 742 q 455 706 460 728 q 447 669 450 683 q 467 639 444 657 q 528 602 490 621 q 609 551 565 583 q 690 483 653 519 q 749 391 726 447 q 767 268 771 335 z "},"6":{"ha":692,"x_min":19,"x_max":667,"o":"m 610 683 q 528 697 610 683 q 253 597 307 722 q 247 581 250 589 q 454 606 313 619 q 664 332 665 585 q 648 205 664 263 q 600 101 632 147 q 513 31 568 56 q 383 6 457 6 q 225 29 292 6 q 110 106 158 53 q 40 253 61 160 q 26 478 19 346 q 97 753 35 624 q 261 931 158 883 q 424 969 332 963 q 574 968 517 976 l 631 958 l 610 683 m 353 383 q 256 371 299 390 q 297 303 261 328 q 373 278 332 278 q 435 306 414 279 q 442 340 449 324 q 412 368 436 356 q 353 383 388 381 z "},"7":{"ha":782,"x_min":69,"x_max":714,"o":"m 713 960 l 681 701 q 467 332 517 439 q 408 179 432 257 q 378 61 383 101 l 371 21 l 107 19 q 190 276 146 182 q 219 341 199 294 q 256 424 239 388 q 299 508 274 460 q 355 601 324 556 q 421 688 386 647 q 349 686 429 696 q 186 661 269 676 l 103 647 l 69 968 l 713 960 z "},"8":{"ha":744,"x_min":21,"x_max":721,"o":"m 719 281 q 714 191 719 231 q 690 110 708 151 q 640 40 671 68 q 556 -6 610 13 q 429 -24 501 -24 q 291 -16 353 -25 q 188 8 229 -7 q 115 47 146 22 q 67 96 85 71 q 40 154 50 121 q 26 217 29 188 q 22 281 22 246 q 28 356 22 321 q 43 417 33 392 q 65 463 53 442 q 90 495 78 483 q 115 516 103 507 q 135 525 126 525 q 149 522 143 525 q 98 590 114 553 q 89 692 82 626 q 180 903 103 825 q 371 981 257 981 q 576 908 496 981 q 660 692 656 835 q 637 584 661 635 q 592 528 613 533 q 615 522 600 529 q 649 494 631 514 q 683 447 667 475 q 709 374 699 418 q 719 281 719 331 m 372 744 q 331 722 353 744 q 310 665 310 700 q 325 613 310 631 q 372 585 340 596 q 417 613 403 596 q 432 664 432 631 q 424 705 432 686 q 403 734 417 724 q 372 744 389 744 m 451 328 q 440 378 458 351 q 371 419 422 404 q 302 376 319 404 q 290 329 285 349 q 392 278 308 269 q 451 328 439 285 z "},"9":{"ha":692,"x_min":24,"x_max":672,"o":"m 307 961 q 466 937 399 961 q 581 859 533 913 q 650 713 629 806 q 664 489 671 621 q 594 213 656 343 q 429 36 533 82 q 267 -3 360 4 q 117 -1 175 -11 l 60 7 l 81 283 q 99 278 88 281 q 142 272 110 276 q 206 265 175 267 q 277 268 238 264 q 347 284 317 272 q 405 322 378 296 q 444 385 432 347 q 236 360 378 346 q 26 633 25 381 q 42 761 26 704 q 91 864 58 818 q 178 935 124 910 q 307 961 233 961 m 338 582 q 436 594 392 576 q 394 663 429 638 q 318 688 358 689 q 256 660 278 686 q 258 611 233 635 q 338 582 283 588 z "},"\u0000":{"ha":0,"x_min":0,"x_max":0,"o":""},"\n":{"ha":0,"x_min":0,"x_max":0,"o":""},"\r":{"ha":0,"x_min":0,"x_max":0,"o":""}," ":{"ha":414,"x_min":0,"x_max":0,"o":""},"!":{"ha":335,"x_min":29,"x_max":306,"o":"m 279 297 l 57 310 l 33 990 l 292 982 l 279 297 m 265 32 q 245 14 265 32 q 168 -4 225 -4 q 71 32 111 -4 q 31 119 31 68 q 71 207 31 171 q 168 243 111 243 q 265 207 225 243 q 306 119 306 171 q 265 32 306 68 z "},"\"":{"ha":621,"x_min":15,"x_max":603,"o":"m 224 1003 q 283 940 264 985 q 299 849 303 896 q 267 762 294 803 q 194 708 239 721 q 142 701 168 701 q 101 703 115 700 l 88 706 l 94 799 q 100 799 96 799 q 114 802 104 800 q 131 808 124 804 q 147 819 139 811 q 157 836 154 826 q 126 828 147 831 q 83 831 106 826 q 41 853 60 835 q 19 900 22 871 q 44 978 15 944 q 119 1019 72 1013 q 224 1003 165 1026 m 524 1003 q 583 940 564 985 q 599 849 603 896 q 567 762 594 803 q 494 708 539 721 q 442 701 469 701 q 401 703 415 700 l 388 706 l 394 799 q 401 799 397 799 q 414 802 404 800 q 431 808 424 804 q 447 819 439 811 q 457 836 454 826 q 426 828 447 831 q 383 831 406 826 q 342 853 360 835 q 321 900 324 871 q 344 978 315 944 q 419 1019 372 1013 q 524 1003 465 1026 z "},"#":{"ha":801,"x_min":28,"x_max":774,"o":"m 774 785 l 774 547 l 640 547 l 617 442 l 749 442 l 749 206 l 565 206 l 525 19 l 332 49 l 367 206 l 289 206 l 250 29 l 57 58 l 89 206 l 28 206 l 28 442 l 140 442 l 164 549 l 53 549 l 53 785 l 214 785 l 258 990 l 457 979 l 414 785 l 492 785 l 533 979 l 732 969 l 692 785 l 774 785 m 418 442 l 440 549 l 363 549 l 339 442 l 418 442 z "},"$":{"ha":788,"x_min":69,"x_max":769,"o":"m 756 344 q 768 269 767 307 q 762 197 769 232 q 735 129 754 161 q 690 72 717 97 q 622 28 663 46 q 533 4 582 11 l 546 -151 l 342 -149 l 349 10 q 202 42 272 21 q 101 78 132 63 l 69 93 l 169 354 q 369 293 274 307 q 482 307 468 278 q 460 343 490 324 q 422 365 458 344 q 359 402 386 385 q 290 456 332 419 q 223 528 249 492 q 179 619 197 565 q 165 729 161 672 q 353 993 182 943 l 342 1146 l 546 1143 l 539 1001 q 565 996 553 999 q 656 963 614 985 q 718 926 699 942 l 738 910 l 626 688 q 508 744 558 739 q 452 735 472 749 q 443 689 432 722 q 477 652 449 675 q 545 601 506 629 q 626 538 585 574 q 703 452 667 503 q 756 344 739 401 z "},"%":{"ha":1158,"x_min":68,"x_max":1089,"o":"m 624 996 l 906 969 l 508 33 l 308 50 l 624 996 m 482 772 q 433 610 482 672 q 275 549 385 549 q 124 613 178 549 q 69 772 69 676 q 127 927 69 864 q 275 990 185 990 q 425 927 368 990 q 482 772 482 864 m 278 693 q 356 781 356 693 q 346 825 356 806 q 319 856 336 844 q 278 868 301 868 q 223 843 244 868 q 201 781 201 818 q 222 718 201 743 q 278 693 242 693 m 882 442 q 1031 379 974 442 q 1089 225 1089 317 q 1040 63 1089 125 q 882 1 992 1 q 731 65 785 1 q 676 225 676 129 q 734 379 676 317 q 882 442 792 442 m 885 146 q 963 233 963 146 q 941 296 963 271 q 885 321 919 321 q 830 296 851 321 q 808 233 808 271 q 817 190 808 210 q 842 158 825 169 q 885 146 860 146 z "},"&":{"ha":842,"x_min":24,"x_max":772,"o":"m 771 131 q 701 67 761 99 l 771 -60 l 589 -94 l 531 11 q 347 1 438 -4 q 203 32 257 7 q 141 67 168 47 q 85 118 114 86 q 41 200 57 150 q 25 313 25 250 q 34 410 25 367 q 56 478 43 453 q 85 519 69 503 q 113 540 100 535 q 135 543 126 546 q 90 601 113 549 q 71 722 67 653 q 156 933 82 867 q 369 996 231 1000 q 481 971 432 994 q 559 908 529 947 q 606 824 589 869 q 628 725 622 778 q 617 610 633 668 q 564 515 600 553 q 479 479 528 476 l 582 297 q 604 304 592 297 q 627 322 617 311 q 647 342 638 332 q 663 360 657 353 l 667 367 l 771 131 m 264 322 q 294 260 265 278 q 394 258 324 242 l 321 394 q 264 322 261 394 m 265 729 q 303 648 265 672 q 380 644 342 624 q 418 714 418 664 q 380 786 418 764 q 303 792 342 808 q 265 729 265 775 z "},"'":{"ha":321,"x_min":15,"x_max":303,"o":"m 224 1003 q 283 940 264 985 q 299 849 303 896 q 267 762 294 803 q 194 708 239 721 q 142 701 168 701 q 101 703 115 700 l 88 706 l 94 799 q 100 799 96 799 q 114 802 104 800 q 131 808 124 804 q 147 819 139 811 q 157 836 154 826 q 126 828 147 831 q 83 831 106 826 q 41 853 60 835 q 19 900 22 871 q 44 978 15 944 q 119 1019 72 1013 q 224 1003 165 1026 z "},"(":{"ha":626,"x_min":28,"x_max":557,"o":"m 543 904 q 533 905 543 903 q 506 903 524 907 q 467 895 489 899 q 422 876 446 892 q 373 844 397 861 q 327 794 349 826 q 288 722 306 761 q 261 623 271 682 q 251 494 251 564 q 267 333 251 404 q 307 222 282 263 q 362 154 332 182 q 422 116 392 126 q 477 101 453 106 q 518 100 501 97 l 533 101 l 540 -153 q 454 -144 497 -151 q 360 -116 411 -136 q 263 -65 308 -96 q 173 16 217 -35 q 98 131 129 67 q 47 288 67 196 q 28 490 28 381 q 47 705 28 608 q 97 868 65 801 q 174 985 129 935 q 264 1066 218 1036 q 364 1115 310 1096 q 463 1140 418 1133 q 556 1146 508 1146 l 543 904 z "},")":{"ha":626,"x_min":69,"x_max":599,"o":"m 69 1146 q 162 1140 117 1146 q 261 1115 207 1133 q 362 1066 315 1096 q 453 985 408 1036 q 528 868 497 935 q 578 705 560 801 q 597 490 597 608 q 578 288 597 381 q 528 131 560 196 q 453 16 497 67 q 364 -65 410 -35 q 266 -116 318 -96 q 171 -144 214 -136 q 86 -153 128 -151 l 93 101 q 109 99 99 100 q 149 102 119 99 q 204 116 178 106 q 263 153 231 126 q 319 222 296 181 q 358 333 342 263 q 374 494 374 404 q 358 653 374 583 q 316 765 342 724 q 260 838 290 807 q 198 881 229 868 q 141 899 167 893 q 99 906 115 906 l 83 904 l 69 1146 z "},"*":{"ha":532,"x_min":18,"x_max":514,"o":"m 514 788 l 375 753 l 458 657 l 346 571 l 264 688 l 183 571 l 71 657 l 157 756 l 18 790 l 65 919 l 200 872 l 190 997 l 335 996 l 329 868 l 467 917 l 514 788 z "},"+":{"ha":678,"x_min":21,"x_max":658,"o":"m 450 604 l 657 599 l 657 393 l 450 393 l 450 186 l 228 186 l 233 393 l 21 393 l 21 615 l 239 610 l 244 822 l 450 822 l 450 604 z "},",":{"ha":324,"x_min":17,"x_max":304,"o":"m 225 276 q 285 215 265 258 q 300 124 304 171 q 268 35 296 76 q 196 -18 240 -6 q 143 -26 169 -25 q 103 -24 117 -26 l 89 -21 l 96 74 q 101 74 97 74 q 115 76 106 74 q 133 81 125 78 q 148 92 140 85 q 158 110 156 100 q 128 103 149 104 q 84 106 107 101 q 42 127 61 110 q 21 174 24 144 q 45 252 17 218 q 120 293 74 286 q 225 276 167 300 z "},"-":{"ha":575,"x_min":24,"x_max":551,"o":"m 24 642 l 551 626 l 551 431 l 24 431 l 24 642 z "},".":{"ha":319,"x_min":22,"x_max":297,"o":"m 160 42 q 63 78 103 42 q 22 165 22 114 q 63 251 22 215 q 160 288 103 288 q 228 272 197 288 q 278 227 260 256 q 297 165 297 199 q 278 102 297 131 q 228 58 260 74 q 160 42 197 42 z "},"/":{"ha":736,"x_min":69,"x_max":667,"o":"m 385 1000 l 667 974 l 269 38 l 69 53 l 385 1000 z "},":":{"ha":342,"x_min":22,"x_max":318,"o":"m 276 81 q 256 63 276 81 q 179 44 236 44 q 83 81 122 44 q 43 168 43 117 q 83 256 43 219 q 179 292 122 292 q 276 256 236 292 q 317 168 317 219 q 276 81 317 117 m 258 431 q 238 413 258 431 q 161 394 218 394 q 64 431 104 394 q 24 518 24 467 q 64 606 24 569 q 161 642 104 642 q 258 606 218 642 q 299 518 299 569 q 258 431 299 467 z "},";":{"ha":331,"x_min":21,"x_max":308,"o":"m 264 431 q 244 413 264 431 q 167 394 224 394 q 69 431 110 394 q 29 518 29 467 q 69 606 29 569 q 167 642 110 642 q 264 606 224 642 q 304 518 304 569 q 264 431 304 467 m 229 281 q 289 218 269 263 q 304 127 308 174 q 272 39 300 81 q 200 -14 244 -3 q 147 -22 174 -21 q 107 -19 121 -22 l 93 -17 l 100 76 q 106 76 101 76 q 119 78 110 76 q 137 84 129 81 q 152 95 144 88 q 163 113 160 103 q 132 106 153 107 q 88 108 111 104 q 47 131 65 113 q 25 176 28 149 q 49 256 21 222 q 124 297 78 289 q 229 281 171 304 z "},"<":{"ha":568,"x_min":19,"x_max":543,"o":"m 339 336 q 408 330 361 332 q 490 326 454 328 l 526 325 l 540 157 q 314 176 438 157 q 172 216 236 189 q 65 291 108 243 q 21 400 21 339 q 68 500 21 454 q 176 572 115 546 q 299 607 236 597 q 358 615 324 611 q 424 623 393 619 q 483 628 456 626 q 525 632 510 631 l 542 633 l 528 471 q 328 450 396 463 q 248 424 282 440 q 215 394 214 408 q 253 361 217 379 q 339 336 289 343 z "},"=":{"ha":583,"x_min":28,"x_max":556,"o":"m 28 757 l 556 740 l 556 546 l 28 546 l 28 757 m 28 267 l 28 463 l 556 463 l 556 251 l 28 267 z "},">":{"ha":568,"x_min":25,"x_max":547,"o":"m 268 607 q 391 572 331 597 q 499 500 451 546 q 546 400 546 454 q 502 291 546 339 q 394 216 458 243 q 253 176 331 189 q 141 163 197 168 q 56 157 85 158 l 26 157 l 40 325 q 228 336 179 329 q 314 361 278 343 q 351 394 350 379 q 319 424 353 408 q 239 450 285 440 q 158 460 208 456 q 74 468 108 465 l 39 471 l 25 633 q 268 607 176 622 z "},"?":{"ha":635,"x_min":69,"x_max":568,"o":"m 565 781 q 553 711 568 746 q 513 649 538 676 q 464 597 489 621 q 416 554 439 574 q 388 526 393 535 q 381 465 381 507 q 386 381 382 424 l 392 338 q 161 336 271 338 q 174 519 167 454 q 196 608 178 571 q 237 665 214 646 q 283 698 260 685 q 324 723 306 711 q 346 747 342 735 q 338 788 356 776 q 292 794 321 799 q 240 781 272 793 q 186 757 208 768 l 164 746 l 69 938 q 87 953 75 943 q 136 983 99 963 q 214 1011 174 1003 q 256 1018 235 1015 q 306 1022 278 1021 q 360 1017 333 1022 q 416 1003 388 1013 q 469 974 444 993 q 513 931 493 956 q 547 867 533 906 q 565 781 561 828 m 274 42 q 177 78 217 42 q 138 165 138 114 q 177 251 138 215 q 274 288 217 288 q 343 272 311 288 q 393 227 375 256 q 411 165 411 199 q 393 102 411 131 q 343 58 375 74 q 274 42 311 42 z "},"@":{"ha":940,"x_min":24,"x_max":926,"o":"m 439 1039 q 810 899 696 1038 q 914 494 925 761 q 888 307 908 383 q 832 189 867 231 q 758 131 797 147 q 665 113 718 114 q 603 120 631 113 q 558 140 575 128 q 527 165 540 151 q 508 194 514 179 q 499 220 503 208 q 494 239 494 232 l 494 247 q 390 206 438 203 q 341 215 363 208 q 294 240 319 221 q 251 289 268 258 q 223 373 235 319 q 211 499 211 426 q 229 649 211 588 q 278 739 247 711 q 340 776 308 767 q 404 783 371 786 q 499 733 461 779 l 499 776 l 678 783 l 706 296 q 710 297 708 296 q 733 323 724 300 q 749 381 743 346 q 758 460 756 417 q 760 549 761 503 q 753 631 758 592 q 730 722 749 671 q 682 810 711 774 q 597 870 653 846 q 468 893 542 894 q 338 869 393 892 q 251 812 283 847 q 201 722 219 776 q 176 615 182 668 q 169 490 169 561 q 181 377 169 431 q 208 289 192 324 q 243 228 224 254 q 278 190 263 203 q 306 175 294 178 l 394 157 l 361 10 q 206 54 285 14 q 160 93 186 64 q 102 174 133 122 q 49 312 71 225 q 26 503 28 399 q 132 896 25 753 q 439 1039 239 1039 m 496 415 l 497 583 q 444 580 468 586 q 402 557 419 574 q 383 514 385 540 q 405 440 379 469 q 490 415 431 411 q 496 415 492 415 z "},"A":{"ha":749,"x_min":14,"x_max":733,"o":"m 282 292 l 313 61 l 79 13 q 62 61 72 29 q 34 199 51 93 q 15 422 17 306 q 26 589 15 510 q 63 743 36 668 q 131 872 90 818 q 237 956 172 925 q 382 985 301 988 q 476 968 432 982 q 551 934 519 954 q 608 881 582 914 q 651 818 635 847 q 682 746 668 789 q 703 672 696 703 q 716 597 710 642 q 724 528 722 551 q 728 467 725 506 q 729 453 729 457 q 730 442 729 449 q 731 431 731 436 q 733 351 733 392 q 728 269 732 310 q 720 190 725 228 q 710 120 715 153 q 700 64 704 88 q 693 26 696 40 l 690 13 l 432 50 q 460 304 449 182 q 390 307 424 308 q 282 292 339 304 m 369 751 q 323 725 344 751 q 286 643 301 699 q 268 513 271 588 q 390 532 329 532 q 469 525 429 532 q 369 751 463 751 z "},"À":{"ha":749,"x_min":14,"x_max":733,"o":"m 282 292 l 313 61 l 79 13 q 62 61 72 29 q 34 199 51 93 q 15 422 17 306 q 26 589 15 510 q 63 743 36 668 q 131 872 90 818 q 237 956 172 925 q 382 985 301 988 q 476 968 432 982 q 551 934 519 954 q 608 881 582 914 q 651 818 635 847 q 682 746 668 789 q 703 672 696 703 q 716 597 710 642 q 724 528 722 551 q 728 467 725 506 q 729 453 729 457 q 730 442 729 449 q 731 431 731 436 q 733 351 733 392 q 728 269 732 310 q 720 190 725 228 q 710 120 715 153 q 700 64 704 88 q 693 26 696 40 l 690 13 l 432 50 q 460 304 449 182 q 390 307 424 308 q 282 292 339 304 m 369 751 q 323 725 344 751 q 286 643 301 699 q 268 513 271 588 q 390 532 329 532 q 469 525 429 532 q 369 751 463 751 z "},"Á":{"ha":749,"x_min":14,"x_max":733,"o":"m 282 292 l 313 61 l 79 13 q 62 61 72 29 q 34 199 51 93 q 15 422 17 306 q 26 589 15 510 q 63 743 36 668 q 131 872 90 818 q 237 956 172 925 q 382 985 301 988 q 476 968 432 982 q 551 934 519 954 q 608 881 582 914 q 651 818 635 847 q 682 746 668 789 q 703 672 696 703 q 716 597 710 642 q 724 528 722 551 q 728 467 725 506 q 729 453 729 457 q 730 442 729 449 q 731 431 731 436 q 733 351 733 392 q 728 269 732 310 q 720 190 725 228 q 710 120 715 153 q 700 64 704 88 q 693 26 696 40 l 690 13 l 432 50 q 460 304 449 182 q 390 307 424 308 q 282 292 339 304 m 369 751 q 323 725 344 751 q 286 643 301 699 q 268 513 271 588 q 390 532 329 532 q 469 525 429 532 q 369 751 463 751 z "},"Â":{"ha":749,"x_min":14,"x_max":733,"o":"m 282 292 l 313 61 l 79 13 q 62 61 72 29 q 34 199 51 93 q 15 422 17 306 q 26 589 15 510 q 63 743 36 668 q 131 872 90 818 q 237 956 172 925 q 382 985 301 988 q 476 968 432 982 q 551 934 519 954 q 608 881 582 914 q 651 818 635 847 q 682 746 668 789 q 703 672 696 703 q 716 597 710 642 q 724 528 722 551 q 728 467 725 506 q 729 453 729 457 q 730 442 729 449 q 731 431 731 436 q 733 351 733 392 q 728 269 732 310 q 720 190 725 228 q 710 120 715 153 q 700 64 704 88 q 693 26 696 40 l 690 13 l 432 50 q 460 304 449 182 q 390 307 424 308 q 282 292 339 304 m 369 751 q 323 725 344 751 q 286 643 301 699 q 268 513 271 588 q 390 532 329 532 q 469 525 429 532 q 369 751 463 751 z "},"Ã":{"ha":749,"x_min":14,"x_max":733,"o":"m 282 292 l 313 61 l 79 13 q 62 61 72 29 q 34 199 51 93 q 15 422 17 306 q 26 589 15 510 q 63 743 36 668 q 131 872 90 818 q 237 956 172 925 q 382 985 301 988 q 476 968 432 982 q 551 934 519 954 q 608 881 582 914 q 651 818 635 847 q 682 746 668 789 q 703 672 696 703 q 716 597 710 642 q 724 528 722 551 q 728 467 725 506 q 729 453 729 457 q 730 442 729 449 q 731 431 731 436 q 733 351 733 392 q 728 269 732 310 q 720 190 725 228 q 710 120 715 153 q 700 64 704 88 q 693 26 696 40 l 690 13 l 432 50 q 460 304 449 182 q 390 307 424 308 q 282 292 339 304 m 369 751 q 323 725 344 751 q 286 643 301 699 q 268 513 271 588 q 390 532 329 532 q 469 525 429 532 q 369 751 463 751 z "},"Ä":{"ha":749,"x_min":14,"x_max":733,"o":"m 282 292 l 313 61 l 79 13 q 62 61 72 29 q 34 199 51 93 q 15 422 17 306 q 26 589 15 510 q 63 743 36 668 q 131 872 90 818 q 237 956 172 925 q 382 985 301 988 q 476 968 432 982 q 551 934 519 954 q 608 881 582 914 q 651 818 635 847 q 682 746 668 789 q 703 672 696 703 q 716 597 710 642 q 724 528 722 551 q 728 467 725 506 q 729 453 729 457 q 730 442 729 449 q 731 431 731 436 q 733 351 733 392 q 728 269 732 310 q 720 190 725 228 q 710 120 715 153 q 700 64 704 88 q 693 26 696 40 l 690 13 l 432 50 q 460 304 449 182 q 390 307 424 308 q 282 292 339 304 m 369 751 q 323 725 344 751 q 286 643 301 699 q 268 513 271 588 q 390 532 329 532 q 469 525 429 532 q 369 751 463 751 z "},"Å":{"ha":749,"x_min":14,"x_max":733,"o":"m 282 292 l 313 61 l 79 13 q 62 61 72 29 q 34 199 51 93 q 15 422 17 306 q 26 589 15 510 q 63 743 36 668 q 131 872 90 818 q 237 956 172 925 q 382 985 301 988 q 476 968 432 982 q 551 934 519 954 q 608 881 582 914 q 651 818 635 847 q 682 746 668 789 q 703 672 696 703 q 716 597 710 642 q 724 528 722 551 q 728 467 725 506 q 729 453 729 457 q 730 442 729 449 q 731 431 731 436 q 733 351 733 392 q 728 269 732 310 q 720 190 725 228 q 710 120 715 153 q 700 64 704 88 q 693 26 696 40 l 690 13 l 432 50 q 460 304 449 182 q 390 307 424 308 q 282 292 339 304 m 369 751 q 323 725 344 751 q 286 643 301 699 q 268 513 271 588 q 390 532 329 532 q 469 525 429 532 q 369 751 463 751 z "},"B":{"ha":725,"x_min":28,"x_max":717,"o":"m 333 -10 q 43 31 174 -10 l 28 946 q 60 959 39 951 q 148 981 81 967 q 288 996 215 994 q 397 990 346 997 q 504 961 449 983 q 598 903 560 939 q 661 803 636 867 q 686 654 686 739 q 606 414 685 496 q 715 226 715 354 q 703 149 714 183 q 674 92 692 115 q 628 50 656 68 q 573 22 600 32 q 509 6 546 13 q 444 -4 472 -1 q 378 -10 415 -7 q 333 -10 358 -11 m 357 161 q 410 169 388 165 q 450 177 433 172 q 478 188 467 182 q 494 202 489 194 q 502 219 500 210 q 503 239 504 228 q 449 292 499 271 q 342 311 400 314 q 310 308 328 310 l 321 160 q 357 161 339 160 m 472 671 q 413 735 469 714 q 288 751 356 756 q 276 750 283 750 l 292 536 q 304 538 299 538 q 407 566 367 546 q 462 612 447 586 q 472 671 476 638 z "},"C":{"ha":624,"x_min":3,"x_max":618,"o":"m 231 78 q 140 145 175 113 q 71 226 104 178 q 22 340 38 274 q 6 496 7 407 q 77 779 4 668 q 272 944 150 890 q 432 988 346 976 q 568 994 518 999 l 617 989 l 597 719 q 584 719 596 718 q 551 719 572 721 q 502 714 529 717 q 444 703 475 711 q 383 686 414 696 q 325 659 353 676 q 276 620 297 642 q 242 567 256 599 q 229 499 229 536 q 249 421 229 456 q 300 366 268 386 q 371 331 332 346 q 448 311 410 317 q 518 302 486 306 q 571 300 550 299 l 590 300 l 600 3 q 572 3 590 3 q 504 8 554 4 q 410 19 454 11 q 314 42 365 26 q 231 78 263 57 z "},"Ç":{"ha":624,"x_min":3,"x_max":618,"o":"m 231 78 q 140 145 175 113 q 71 226 104 178 q 22 340 38 274 q 6 496 7 407 q 77 779 4 668 q 272 944 150 890 q 432 988 346 976 q 568 994 518 999 l 617 989 l 597 719 q 584 719 596 718 q 551 719 572 721 q 502 714 529 717 q 444 703 475 711 q 383 686 414 696 q 325 659 353 676 q 276 620 297 642 q 242 567 256 599 q 229 499 229 536 q 249 421 229 456 q 300 366 268 386 q 371 331 332 346 q 448 311 410 317 q 518 302 486 306 q 571 300 550 299 l 590 300 l 600 3 q 572 3 590 3 q 504 8 554 4 q 410 19 454 11 q 314 42 365 26 q 231 78 263 57 z "},"D":{"ha":675,"x_min":26,"x_max":668,"o":"m 331 3 q 306 -3 322 0 q 246 -12 289 -7 q 167 -19 203 -18 q 95 -10 132 -19 q 43 19 58 -1 l 28 985 q 54 987 38 986 q 119 988 71 988 q 213 984 168 988 q 316 967 258 981 q 417 935 374 954 q 600 768 532 881 q 667 481 668 656 q 642 280 665 360 q 575 151 618 200 q 456 57 532 103 q 407 33 438 46 q 354 11 376 19 l 331 3 m 457 483 q 281 683 456 631 l 308 308 q 457 483 458 357 z "},"E":{"ha":626,"x_min":3,"x_max":618,"o":"m 231 72 q 140 140 175 107 q 71 220 104 172 q 22 335 38 268 q 6 490 7 401 q 77 774 4 663 q 272 939 150 885 q 432 982 346 971 q 568 989 518 993 l 617 983 l 597 714 q 581 714 590 714 q 541 712 571 714 q 483 706 511 710 q 418 692 456 701 q 351 667 381 682 q 292 629 321 653 q 249 575 264 606 l 497 585 l 497 350 l 306 357 q 354 332 326 343 q 408 314 382 321 q 462 303 435 307 q 512 297 489 299 q 553 295 535 296 q 581 294 571 294 l 590 294 l 600 -3 q 572 -2 590 -3 q 504 2 554 -1 q 410 13 454 6 q 314 36 365 21 q 231 72 263 51 z "},"È":{"ha":626,"x_min":3,"x_max":618,"o":"m 231 72 q 140 140 175 107 q 71 220 104 172 q 22 335 38 268 q 6 490 7 401 q 77 774 4 663 q 272 939 150 885 q 432 982 346 971 q 568 989 518 993 l 617 983 l 597 714 q 581 714 590 714 q 541 712 571 714 q 483 706 511 710 q 418 692 456 701 q 351 667 381 682 q 292 629 321 653 q 249 575 264 606 l 497 585 l 497 350 l 306 357 q 354 332 326 343 q 408 314 382 321 q 462 303 435 307 q 512 297 489 299 q 553 295 535 296 q 581 294 571 294 l 590 294 l 600 -3 q 572 -2 590 -3 q 504 2 554 -1 q 410 13 454 6 q 314 36 365 21 q 231 72 263 51 z "},"É":{"ha":626,"x_min":3,"x_max":618,"o":"m 231 72 q 140 140 175 107 q 71 220 104 172 q 22 335 38 268 q 6 490 7 401 q 77 774 4 663 q 272 939 150 885 q 432 982 346 971 q 568 989 518 993 l 617 983 l 597 714 q 581 714 590 714 q 541 712 571 714 q 483 706 511 710 q 418 692 456 701 q 351 667 381 682 q 292 629 321 653 q 249 575 264 606 l 497 585 l 497 350 l 306 357 q 354 332 326 343 q 408 314 382 321 q 462 303 435 307 q 512 297 489 299 q 553 295 535 296 q 581 294 571 294 l 590 294 l 600 -3 q 572 -2 590 -3 q 504 2 554 -1 q 410 13 454 6 q 314 36 365 21 q 231 72 263 51 z "},"Ê":{"ha":626,"x_min":3,"x_max":618,"o":"m 231 72 q 140 140 175 107 q 71 220 104 172 q 22 335 38 268 q 6 490 7 401 q 77 774 4 663 q 272 939 150 885 q 432 982 346 971 q 568 989 518 993 l 617 983 l 597 714 q 581 714 590 714 q 541 712 571 714 q 483 706 511 710 q 418 692 456 701 q 351 667 381 682 q 292 629 321 653 q 249 575 264 606 l 497 585 l 497 350 l 306 357 q 354 332 326 343 q 408 314 382 321 q 462 303 435 307 q 512 297 489 299 q 553 295 535 296 q 581 294 571 294 l 590 294 l 600 -3 q 572 -2 590 -3 q 504 2 554 -1 q 410 13 454 6 q 314 36 365 21 q 231 72 263 51 z "},"Ë":{"ha":626,"x_min":3,"x_max":618,"o":"m 231 72 q 140 140 175 107 q 71 220 104 172 q 22 335 38 268 q 6 490 7 401 q 77 774 4 663 q 272 939 150 885 q 432 982 346 971 q 568 989 518 993 l 617 983 l 597 714 q 581 714 590 714 q 541 712 571 714 q 483 706 511 710 q 418 692 456 701 q 351 667 381 682 q 292 629 321 653 q 249 575 264 606 l 497 585 l 497 350 l 306 357 q 354 332 326 343 q 408 314 382 321 q 462 303 435 307 q 512 297 489 299 q 553 295 535 296 q 581 294 571 294 l 590 294 l 600 -3 q 572 -2 590 -3 q 504 2 554 -1 q 410 13 454 6 q 314 36 365 21 q 231 72 263 51 z "},"F":{"ha":640,"x_min":32,"x_max":646,"o":"m 290 340 l 306 4 l 33 21 l 33 922 l 644 963 l 607 711 l 274 718 l 281 551 l 556 560 l 556 332 l 290 340 z "},"G":{"ha":664,"x_min":-1,"x_max":644,"o":"m 642 -14 q 607 -17 629 -15 q 520 -15 585 -18 q 397 1 456 -11 q 266 48 339 14 q 140 133 193 82 q 49 274 88 185 q 6 481 10 364 q 71 763 0 651 q 263 931 142 875 q 415 974 332 963 q 546 979 499 985 l 593 975 l 574 704 q 554 705 567 706 q 505 701 542 704 q 435 690 468 697 q 361 667 401 683 q 292 628 321 651 q 242 568 263 606 q 221 483 221 531 q 234 417 221 447 q 268 367 247 388 q 318 332 289 347 q 376 308 347 317 q 436 294 404 300 l 436 333 l 374 336 l 361 550 l 644 561 l 644 324 l 643 324 l 642 -14 z "},"H":{"ha":668,"x_min":35,"x_max":633,"o":"m 292 346 l 307 10 l 35 26 l 35 951 l 265 968 l 283 558 l 378 561 l 361 968 l 632 953 l 632 28 l 403 10 l 388 342 l 292 346 z "},"I":{"ha":324,"x_min":28,"x_max":300,"o":"m 275 946 l 300 10 l 28 21 l 42 964 l 275 946 z "},"Ì":{"ha":324,"x_min":28,"x_max":300,"o":"m 275 946 l 300 10 l 28 21 l 42 964 l 275 946 z "},"Í":{"ha":324,"x_min":28,"x_max":300,"o":"m 275 946 l 300 10 l 28 21 l 42 964 l 275 946 z "},"Î":{"ha":324,"x_min":28,"x_max":300,"o":"m 275 946 l 300 10 l 28 21 l 42 964 l 275 946 z "},"Ï":{"ha":324,"x_min":28,"x_max":300,"o":"m 275 946 l 300 10 l 28 21 l 42 964 l 275 946 z "},"J":{"ha":619,"x_min":1,"x_max":597,"o":"m 415 35 q 260 0 363 8 q 79 -4 157 -8 l 1 1 l 11 299 q 31 295 18 297 q 78 291 43 293 q 147 290 114 289 q 221 297 181 290 q 292 317 261 304 q 345 358 322 331 q 372 421 368 385 q 376 524 376 460 q 372 650 375 589 l 371 711 q 254 713 313 715 q 151 707 196 711 l 107 701 l 64 926 q 107 931 79 928 q 211 938 135 933 q 353 946 288 943 q 489 948 418 949 q 596 940 560 947 q 596 494 597 796 q 580 281 596 368 q 524 132 564 194 q 415 35 483 69 z "},"K":{"ha":728,"x_min":26,"x_max":715,"o":"m 606 410 q 715 222 715 350 q 710 151 715 186 q 699 91 706 115 q 686 48 693 67 q 675 21 679 29 l 671 11 l 440 19 q 447 30 443 22 q 460 60 451 38 q 473 106 468 82 q 478 165 478 131 q 469 234 478 200 q 428 289 460 268 q 342 307 396 310 q 311 304 328 306 l 333 14 q 285 9 315 11 q 178 10 256 7 q 43 32 101 14 l 28 958 l 260 964 l 293 532 q 304 533 299 533 q 419 578 393 546 q 440 667 444 611 q 434 700 439 679 q 423 744 429 721 q 409 792 417 767 q 394 839 401 817 q 382 879 388 861 q 372 908 376 897 l 368 918 l 617 971 q 624 961 619 968 q 641 927 629 954 q 662 867 653 900 q 678 776 671 835 q 686 651 686 718 q 606 410 686 492 z "},"L":{"ha":608,"x_min":18,"x_max":615,"o":"m 201 43 q 60 203 101 94 q 19 503 19 313 q 28 751 19 638 q 47 911 38 865 l 56 958 l 292 958 q 289 938 292 951 q 281 886 286 925 q 269 808 275 847 q 259 714 264 768 q 252 610 254 660 q 252 508 250 561 q 260 414 254 456 q 307 333 268 363 q 394 297 346 303 q 491 292 443 290 q 572 300 539 293 l 604 307 l 614 10 q 582 7 603 8 q 503 5 561 6 q 396 6 446 4 q 290 17 346 8 q 201 43 233 26 z "},"M":{"ha":1113,"x_min":15,"x_max":1094,"o":"m 86 11 q 28 415 54 156 q 19 653 15 556 q 37 811 22 751 q 67 903 51 871 q 96 947 83 936 l 110 958 q 121 959 114 958 q 150 960 128 960 q 194 960 172 961 q 246 956 215 960 q 303 944 276 951 q 360 922 331 936 q 411 889 389 908 q 549 692 499 811 q 690 889 589 793 q 767 938 724 919 q 851 960 811 956 q 926 965 890 964 q 982 961 961 965 l 1003 958 q 1010 953 1006 957 q 1026 933 1014 950 q 1049 894 1039 917 q 1071 827 1060 871 q 1088 730 1082 783 q 1094 594 1094 676 q 1083 415 1093 511 q 1058 198 1072 299 q 1035 54 1043 97 l 1025 11 l 771 31 q 811 388 804 300 l 838 717 q 714 407 779 707 q 660 97 689 288 l 661 90 l 660 90 l 658 89 l 556 90 l 453 89 q 453 90 453 89 l 451 90 q 451 99 451 93 q 397 407 425 289 q 274 717 326 708 q 300 388 281 618 l 342 31 l 86 11 z "},"N":{"ha":729,"x_min":29,"x_max":701,"o":"m 294 14 l 39 14 l 29 965 q 247 950 161 978 q 292 913 269 943 q 338 835 314 883 q 383 738 361 788 q 433 624 404 689 q 485 514 461 558 q 469 961 496 492 l 701 954 l 688 8 l 471 8 q 388 201 454 53 q 351 278 372 238 q 310 360 331 319 q 279 419 289 401 l 294 14 z "},"Ñ":{"ha":729,"x_min":29,"x_max":701,"o":"m 294 14 l 39 14 l 29 965 q 247 950 161 978 q 292 913 269 943 q 338 835 314 883 q 383 738 361 788 q 433 624 404 689 q 485 514 461 558 q 469 961 496 492 l 701 954 l 688 8 l 471 8 q 388 201 454 53 q 351 278 372 238 q 310 360 331 319 q 279 419 289 401 l 294 14 z "},"O":{"ha":756,"x_min":7,"x_max":747,"o":"m 376 -15 q 187 54 272 -15 q 54 239 101 124 q 7 489 7 354 q 59 735 7 621 q 197 915 111 850 q 376 981 282 981 q 573 914 488 981 q 703 736 658 847 q 747 489 747 625 q 707 237 747 349 q 581 55 667 125 q 376 -15 496 -15 m 376 729 q 270 666 319 729 q 221 508 221 603 q 270 342 221 403 q 376 282 319 282 q 486 340 440 282 q 532 508 532 399 q 487 667 532 606 q 376 729 442 729 z "},"Ò":{"ha":756,"x_min":7,"x_max":747,"o":"m 376 -15 q 187 54 272 -15 q 54 239 101 124 q 7 489 7 354 q 59 735 7 621 q 197 915 111 850 q 376 981 282 981 q 573 914 488 981 q 703 736 658 847 q 747 489 747 625 q 707 237 747 349 q 581 55 667 125 q 376 -15 496 -15 m 376 729 q 270 666 319 729 q 221 508 221 603 q 270 342 221 403 q 376 282 319 282 q 486 340 440 282 q 532 508 532 399 q 487 667 532 606 q 376 729 442 729 z "},"Ó":{"ha":756,"x_min":7,"x_max":747,"o":"m 376 -15 q 187 54 272 -15 q 54 239 101 124 q 7 489 7 354 q 59 735 7 621 q 197 915 111 850 q 376 981 282 981 q 573 914 488 981 q 703 736 658 847 q 747 489 747 625 q 707 237 747 349 q 581 55 667 125 q 376 -15 496 -15 m 376 729 q 270 666 319 729 q 221 508 221 603 q 270 342 221 403 q 376 282 319 282 q 486 340 440 282 q 532 508 532 399 q 487 667 532 606 q 376 729 442 729 z "},"Ô":{"ha":756,"x_min":7,"x_max":747,"o":"m 376 -15 q 187 54 272 -15 q 54 239 101 124 q 7 489 7 354 q 59 735 7 621 q 197 915 111 850 q 376 981 282 981 q 573 914 488 981 q 703 736 658 847 q 747 489 747 625 q 707 237 747 349 q 581 55 667 125 q 376 -15 496 -15 m 376 729 q 270 666 319 729 q 221 508 221 603 q 270 342 221 403 q 376 282 319 282 q 486 340 440 282 q 532 508 532 399 q 487 667 532 606 q 376 729 442 729 z "},"Õ":{"ha":756,"x_min":7,"x_max":747,"o":"m 376 -15 q 187 54 272 -15 q 54 239 101 124 q 7 489 7 354 q 59 735 7 621 q 197 915 111 850 q 376 981 282 981 q 573 914 488 981 q 703 736 658 847 q 747 489 747 625 q 707 237 747 349 q 581 55 667 125 q 376 -15 496 -15 m 376 729 q 270 666 319 729 q 221 508 221 603 q 270 342 221 403 q 376 282 319 282 q 486 340 440 282 q 532 508 532 399 q 487 667 532 606 q 376 729 442 729 z "},"Ö":{"ha":756,"x_min":7,"x_max":747,"o":"m 376 -15 q 187 54 272 -15 q 54 239 101 124 q 7 489 7 354 q 59 735 7 621 q 197 915 111 850 q 376 981 282 981 q 573 914 488 981 q 703 736 658 847 q 747 489 747 625 q 707 237 747 349 q 581 55 667 125 q 376 -15 496 -15 m 376 729 q 270 666 319 729 q 221 508 221 603 q 270 342 221 403 q 376 282 319 282 q 486 340 440 282 q 532 508 532 399 q 487 667 532 606 q 376 729 442 729 z "},"Ø":{"ha":756,"x_min":7,"x_max":747,"o":"m 376 -15 q 187 54 272 -15 q 54 239 101 124 q 7 489 7 354 q 59 735 7 621 q 197 915 111 850 q 376 981 282 981 q 573 914 488 981 q 703 736 658 847 q 747 489 747 625 q 707 237 747 349 q 581 55 667 125 q 376 -15 496 -15 m 376 729 q 270 666 319 729 q 221 508 221 603 q 270 342 221 403 q 376 282 319 282 q 486 340 440 282 q 532 508 532 399 q 487 667 532 606 q 376 729 442 729 z "},"P":{"ha":693,"x_min":35,"x_max":693,"o":"m 293 299 l 307 -3 l 35 14 l 35 933 q 294 981 165 978 q 386 976 343 982 q 476 958 429 971 q 561 921 524 946 q 629 859 599 896 q 676 766 660 822 q 693 639 693 710 q 683 540 692 585 q 658 463 675 496 q 620 406 640 431 q 572 363 600 381 q 517 335 543 346 q 456 317 490 324 q 394 306 421 310 q 332 300 367 303 q 293 299 315 299 m 479 656 q 417 726 475 700 q 294 746 360 751 q 274 744 286 746 l 283 518 q 311 522 297 519 q 444 569 404 535 q 479 656 485 604 z "},"Q":{"ha":757,"x_min":7,"x_max":747,"o":"m 376 -12 q 187 56 272 -12 q 54 240 101 125 q 7 490 7 356 q 59 738 7 624 q 197 917 111 851 q 376 983 282 982 q 573 917 488 983 q 703 738 658 850 q 747 490 747 626 q 716 269 747 371 q 625 99 685 167 q 679 8 657 56 q 706 -67 701 -40 l 711 -94 l 488 -114 q 449 -6 476 -64 q 376 -12 414 -12 m 376 732 q 322 715 350 732 q 272 671 294 699 q 235 601 250 643 q 221 511 221 558 q 270 344 221 404 q 376 285 319 285 q 486 343 440 285 q 532 511 532 401 q 487 669 532 607 q 376 732 442 732 z "},"R":{"ha":747,"x_min":35,"x_max":749,"o":"m 293 310 l 307 7 l 35 25 l 35 944 q 294 990 165 989 q 404 985 353 992 q 511 956 456 978 q 605 897 567 933 q 668 797 643 861 q 693 649 693 733 q 575 376 692 457 q 650 283 617 333 q 701 191 683 233 q 730 113 718 149 q 744 56 742 76 l 747 35 l 469 7 q 460 47 467 22 q 429 135 454 71 q 374 247 404 199 q 299 310 344 293 q 293 310 296 310 m 479 665 q 417 735 475 710 q 294 757 360 761 q 274 754 286 756 l 283 529 q 311 532 297 531 q 444 580 404 544 q 479 665 485 615 z "},"S":{"ha":694,"x_min":-8,"x_max":692,"o":"m 292 282 q 404 297 390 268 q 382 333 410 314 q 344 354 381 333 q 281 392 308 375 q 213 446 254 410 q 145 518 171 482 q 101 608 119 554 q 88 719 83 661 q 112 831 93 782 q 158 910 131 881 q 221 960 185 940 q 292 988 257 979 q 365 997 326 996 q 432 995 403 999 q 488 986 461 992 q 578 953 536 975 q 640 915 621 932 l 660 899 l 549 676 q 431 733 481 728 q 374 725 394 738 q 365 679 354 713 q 399 642 371 664 q 467 591 428 619 q 548 528 507 563 q 625 442 589 493 q 678 333 661 390 q 690 237 689 285 q 670 144 690 189 q 617 65 650 100 q 527 10 583 31 q 400 -10 471 -10 q 300 -3 350 -8 q 211 10 250 1 q 136 28 172 18 q 74 47 100 38 q 30 65 49 57 q 1 78 11 72 l -8 82 l 92 344 q 292 282 196 296 z "},"T":{"ha":600,"x_min":-11,"x_max":610,"o":"m 176 725 l 3 725 l -11 925 l 600 958 l 608 725 l 415 725 l 447 -4 l 176 13 l 176 725 z "},"U":{"ha":767,"x_min":18,"x_max":747,"o":"m 201 18 q 92 117 133 53 q 35 269 51 181 q 19 488 19 358 q 22 611 19 551 q 26 716 24 671 q 33 801 29 761 q 42 867 38 840 q 49 915 46 894 q 54 944 51 935 l 56 953 l 292 953 q 289 933 292 946 q 281 879 286 919 q 269 799 275 839 q 259 703 264 760 q 252 598 254 647 q 252 494 250 549 q 260 397 254 440 q 383 272 278 282 q 506 397 488 282 q 511 633 518 510 q 489 856 504 757 l 474 953 l 710 953 q 719 901 714 936 q 735 746 725 867 q 746 488 746 625 q 705 183 746 294 q 564 18 664 72 q 382 -15 499 -17 q 201 18 265 -14 z "},"Ù":{"ha":767,"x_min":18,"x_max":747,"o":"m 201 18 q 92 117 133 53 q 35 269 51 181 q 19 488 19 358 q 22 611 19 551 q 26 716 24 671 q 33 801 29 761 q 42 867 38 840 q 49 915 46 894 q 54 944 51 935 l 56 953 l 292 953 q 289 933 292 946 q 281 879 286 919 q 269 799 275 839 q 259 703 264 760 q 252 598 254 647 q 252 494 250 549 q 260 397 254 440 q 383 272 278 282 q 506 397 488 282 q 511 633 518 510 q 489 856 504 757 l 474 953 l 710 953 q 719 901 714 936 q 735 746 725 867 q 746 488 746 625 q 705 183 746 294 q 564 18 664 72 q 382 -15 499 -17 q 201 18 265 -14 z "},"Ú":{"ha":767,"x_min":18,"x_max":747,"o":"m 201 18 q 92 117 133 53 q 35 269 51 181 q 19 488 19 358 q 22 611 19 551 q 26 716 24 671 q 33 801 29 761 q 42 867 38 840 q 49 915 46 894 q 54 944 51 935 l 56 953 l 292 953 q 289 933 292 946 q 281 879 286 919 q 269 799 275 839 q 259 703 264 760 q 252 598 254 647 q 252 494 250 549 q 260 397 254 440 q 383 272 278 282 q 506 397 488 282 q 511 633 518 510 q 489 856 504 757 l 474 953 l 710 953 q 719 901 714 936 q 735 746 725 867 q 746 488 746 625 q 705 183 746 294 q 564 18 664 72 q 382 -15 499 -17 q 201 18 265 -14 z "},"Û":{"ha":767,"x_min":18,"x_max":747,"o":"m 201 18 q 92 117 133 53 q 35 269 51 181 q 19 488 19 358 q 22 611 19 551 q 26 716 24 671 q 33 801 29 761 q 42 867 38 840 q 49 915 46 894 q 54 944 51 935 l 56 953 l 292 953 q 289 933 292 946 q 281 879 286 919 q 269 799 275 839 q 259 703 264 760 q 252 598 254 647 q 252 494 250 549 q 260 397 254 440 q 383 272 278 282 q 506 397 488 282 q 511 633 518 510 q 489 856 504 757 l 474 953 l 710 953 q 719 901 714 936 q 735 746 725 867 q 746 488 746 625 q 705 183 746 294 q 564 18 664 72 q 382 -15 499 -17 q 201 18 265 -14 z "},"Ü":{"ha":767,"x_min":18,"x_max":747,"o":"m 201 18 q 92 117 133 53 q 35 269 51 181 q 19 488 19 358 q 22 611 19 551 q 26 716 24 671 q 33 801 29 761 q 42 867 38 840 q 49 915 46 894 q 54 944 51 935 l 56 953 l 292 953 q 289 933 292 946 q 281 879 286 919 q 269 799 275 839 q 259 703 264 760 q 252 598 254 647 q 252 494 250 549 q 260 397 254 440 q 383 272 278 282 q 506 397 488 282 q 511 633 518 510 q 489 856 504 757 l 474 953 l 710 953 q 719 901 714 936 q 735 746 725 867 q 746 488 746 625 q 705 183 746 294 q 564 18 664 72 q 382 -15 499 -17 q 201 18 265 -14 z "},"V":{"ha":786,"x_min":1,"x_max":782,"o":"m 383 -4 q 279 29 329 -4 q 192 117 229 63 q 124 240 154 171 q 74 376 93 308 q 44 510 54 444 q 23 698 33 585 q 7 886 13 811 l 3 961 l 268 935 q 303 565 285 690 q 338 381 319 447 q 369 296 356 314 q 400 279 383 278 q 431 300 418 281 q 460 390 444 319 q 489 585 475 460 q 497 713 493 626 q 503 867 501 800 l 504 933 l 781 958 q 749 539 781 768 q 715 377 736 454 q 663 230 694 300 q 591 108 631 160 q 498 26 551 57 q 383 -4 444 -4 z "},"W":{"ha":1188,"x_min":1,"x_max":1185,"o":"m 383 -8 q 256 42 317 -8 q 154 172 196 93 q 85 338 113 251 q 44 506 57 424 q 23 694 33 582 q 7 882 13 807 l 3 957 l 268 931 q 303 563 285 688 q 338 378 319 444 q 369 292 356 311 q 400 275 383 274 q 422 283 411 276 q 447 308 433 289 q 470 359 461 328 q 485 448 479 390 q 489 582 490 506 l 475 919 l 711 921 q 706 849 708 893 q 701 710 704 804 q 697 572 697 615 q 786 267 704 274 q 817 283 803 265 q 849 368 831 301 q 883 553 867 435 q 891 613 888 579 q 898 681 894 647 q 905 751 901 715 q 910 817 908 786 q 915 871 913 847 q 917 908 917 894 l 918 922 l 1183 949 q 1142 497 1167 668 q 1101 328 1129 414 q 1032 163 1074 243 q 930 33 990 83 q 803 -17 869 -17 q 670 35 722 -17 q 586 185 618 88 q 562 120 575 149 q 531 67 549 92 q 492 26 514 43 q 443 1 471 10 q 383 -8 415 -8 z "},"X":{"ha":718,"x_min":15,"x_max":701,"o":"m 111 568 q 17 751 17 628 q 27 862 17 810 q 47 939 38 914 l 58 963 l 272 954 q 266 926 269 944 q 263 853 263 908 q 276 743 264 797 q 306 690 285 713 q 358 667 328 667 q 408 697 388 668 q 436 758 428 725 q 452 862 450 813 q 450 932 454 911 l 446 954 l 660 963 q 671 936 664 953 q 689 865 678 919 q 700 751 700 810 q 606 568 700 628 q 683 322 683 486 q 680 229 683 274 q 671 153 676 185 q 658 96 665 122 q 645 53 651 69 q 633 24 639 36 q 624 7 626 13 l 619 3 l 389 54 q 456 307 450 244 q 442 388 460 357 q 358 435 424 419 q 276 388 294 419 q 263 307 258 357 q 281 216 265 279 q 313 104 297 153 l 328 54 l 97 3 q 90 13 94 6 q 75 46 86 19 q 56 106 64 72 q 40 197 47 139 q 33 322 33 256 q 111 568 33 486 z "},"Y":{"ha":647,"x_min":3,"x_max":642,"o":"m 481 363 q 464 357 474 360 l 519 15 l 192 15 l 218 350 q 164 363 185 354 q 68 427 104 383 q 18 528 32 471 q 4 667 4 586 q 12 826 4 753 q 28 928 19 899 l 36 958 l 260 958 q 256 945 258 953 q 249 912 254 938 q 240 861 244 886 q 231 801 235 836 q 225 735 226 767 q 225 671 224 704 q 232 611 226 638 q 251 565 238 582 q 281 541 264 549 q 322 532 297 533 q 418 611 403 538 q 423 758 429 681 q 404 897 417 835 l 390 958 l 608 958 q 617 926 613 947 q 631 828 622 904 q 640 667 640 753 q 604 470 640 544 q 481 363 568 396 z "},"Ý":{"ha":647,"x_min":3,"x_max":642,"o":"m 481 363 q 464 357 474 360 l 519 15 l 192 15 l 218 350 q 164 363 185 354 q 68 427 104 383 q 18 528 32 471 q 4 667 4 586 q 12 826 4 753 q 28 928 19 899 l 36 958 l 260 958 q 256 945 258 953 q 249 912 254 938 q 240 861 244 886 q 231 801 235 836 q 225 735 226 767 q 225 671 224 704 q 232 611 226 638 q 251 565 238 582 q 281 541 264 549 q 322 532 297 533 q 418 611 403 538 q 423 758 429 681 q 404 897 417 835 l 390 958 l 608 958 q 617 926 613 947 q 631 828 622 904 q 640 667 640 753 q 604 470 640 544 q 481 363 568 396 z "},"Ÿ":{"ha":647,"x_min":3,"x_max":642,"o":"m 481 363 q 464 357 474 360 l 519 15 l 192 15 l 218 350 q 164 363 185 354 q 68 427 104 383 q 18 528 32 471 q 4 667 4 586 q 12 826 4 753 q 28 928 19 899 l 36 958 l 260 958 q 256 945 258 953 q 249 912 254 938 q 240 861 244 886 q 231 801 235 836 q 225 735 226 767 q 225 671 224 704 q 232 611 226 638 q 251 565 238 582 q 281 541 264 549 q 322 532 297 533 q 418 611 403 538 q 423 758 429 681 q 404 897 417 835 l 390 958 l 608 958 q 617 926 613 947 q 631 828 622 904 q 640 667 640 753 q 604 470 640 544 q 481 363 568 396 z "},"Z":{"ha":713,"x_min":13,"x_max":707,"o":"m 32 306 q 77 340 50 318 q 165 418 104 363 q 257 515 225 474 q 334 625 299 568 q 385 713 369 682 l 400 742 q 153 710 211 721 q 92 698 125 706 q 38 685 58 690 l 18 681 l 33 947 q 53 953 38 950 q 162 963 68 957 q 404 965 256 968 q 488 963 444 965 q 567 959 532 961 q 630 955 601 957 q 674 951 658 953 l 690 950 q 636 707 664 804 q 604 610 624 661 q 554 498 585 560 q 481 382 524 436 q 390 297 439 328 q 672 328 369 285 l 706 7 l 13 15 l 32 306 z "},"[":{"ha":549,"x_min":32,"x_max":479,"o":"m 272 821 l 272 172 q 292 122 272 140 q 341 99 313 103 q 399 97 369 96 q 447 104 428 99 l 468 108 l 478 -149 q 455 -151 469 -150 q 398 -155 440 -153 q 317 -156 356 -157 q 231 -147 279 -154 q 147 -127 182 -140 q 84 -88 111 -114 q 51 -28 57 -62 q 33 496 32 104 q 51 1021 32 889 q 105 1099 58 1068 q 213 1138 151 1129 q 334 1148 274 1146 q 436 1146 394 1150 l 478 1142 l 468 885 q 447 889 460 886 q 400 894 433 892 q 340 893 367 897 q 293 871 314 889 q 272 821 272 853 z "},"\\":{"ha":736,"x_min":69,"x_max":667,"o":"m 351 1000 l 667 53 l 465 38 l 69 974 l 351 1000 z "},"]":{"ha":549,"x_min":69,"x_max":515,"o":"m 496 1021 q 514 496 515 889 q 510 190 514 333 q 496 -28 507 47 q 465 -88 490 -62 q 401 -127 439 -114 q 318 -148 363 -140 q 230 -156 274 -156 q 150 -155 186 -156 q 92 -151 114 -154 l 69 -149 l 79 108 q 101 104 88 107 q 148 99 114 101 q 208 100 182 96 q 254 122 233 104 q 275 172 275 140 l 275 821 q 255 872 275 853 q 206 893 235 890 q 149 894 178 896 q 100 889 119 893 l 79 885 l 69 1142 q 92 1144 78 1143 q 149 1148 107 1146 q 231 1149 192 1150 q 317 1140 269 1147 q 401 1120 365 1133 q 464 1081 438 1107 q 496 1021 490 1056 z "},"^":{"ha":515,"x_min":21,"x_max":496,"o":"m 449 824 q 470 749 458 794 q 489 674 482 704 l 496 643 l 331 653 q 306 761 317 711 q 282 827 296 799 q 256 856 268 856 q 211 772 226 854 l 188 654 l 21 644 q 57 831 26 743 q 142 974 90 922 q 261 1025 193 1025 q 373 967 325 1025 q 449 824 421 910 z "},"_":{"ha":761,"x_min":24,"x_max":738,"o":"m 24 190 l 738 176 l 738 0 l 24 0 l 24 190 z "},"`":{"ha":289,"x_min":18,"x_max":264,"o":"m 246 986 l 264 631 l 76 636 l 18 990 l 246 986 z "},"a":{"ha":678,"x_min":14,"x_max":657,"o":"m 629 735 l 657 11 q 612 5 640 8 q 510 2 583 1 q 378 15 436 3 l 379 53 q 238 1 303 -3 q 174 13 201 4 q 115 44 146 21 q 63 106 83 68 q 29 213 43 144 q 15 374 15 281 q 23 493 15 439 q 44 585 31 547 q 76 651 57 622 q 115 696 94 679 q 161 722 136 713 q 209 734 186 732 q 257 735 232 736 q 385 671 335 728 l 385 725 l 629 735 m 381 268 l 382 481 q 276 463 321 486 q 228 393 232 440 q 258 299 224 335 q 374 267 292 263 q 381 268 375 267 z "},"à":{"ha":678,"x_min":14,"x_max":657,"o":"m 629 735 l 657 11 q 612 5 640 8 q 510 2 583 1 q 378 15 436 3 l 379 53 q 238 1 303 -3 q 174 13 201 4 q 115 44 146 21 q 63 106 83 68 q 29 213 43 144 q 15 374 15 281 q 23 493 15 439 q 44 585 31 547 q 76 651 57 622 q 115 696 94 679 q 161 722 136 713 q 209 734 186 732 q 257 735 232 736 q 385 671 335 728 l 385 725 l 629 735 m 381 268 l 382 481 q 276 463 321 486 q 228 393 232 440 q 258 299 224 335 q 374 267 292 263 q 381 268 375 267 z "},"á":{"ha":678,"x_min":14,"x_max":657,"o":"m 629 735 l 657 11 q 612 5 640 8 q 510 2 583 1 q 378 15 436 3 l 379 53 q 238 1 303 -3 q 174 13 201 4 q 115 44 146 21 q 63 106 83 68 q 29 213 43 144 q 15 374 15 281 q 23 493 15 439 q 44 585 31 547 q 76 651 57 622 q 115 696 94 679 q 161 722 136 713 q 209 734 186 732 q 257 735 232 736 q 385 671 335 728 l 385 725 l 629 735 m 381 268 l 382 481 q 276 463 321 486 q 228 393 232 440 q 258 299 224 335 q 374 267 292 263 q 381 268 375 267 z "},"â":{"ha":678,"x_min":14,"x_max":657,"o":"m 629 735 l 657 11 q 612 5 640 8 q 510 2 583 1 q 378 15 436 3 l 379 53 q 238 1 303 -3 q 174 13 201 4 q 115 44 146 21 q 63 106 83 68 q 29 213 43 144 q 15 374 15 281 q 23 493 15 439 q 44 585 31 547 q 76 651 57 622 q 115 696 94 679 q 161 722 136 713 q 209 734 186 732 q 257 735 232 736 q 385 671 335 728 l 385 725 l 629 735 m 381 268 l 382 481 q 276 463 321 486 q 228 393 232 440 q 258 299 224 335 q 374 267 292 263 q 381 268 375 267 z "},"ã":{"ha":678,"x_min":14,"x_max":657,"o":"m 629 735 l 657 11 q 612 5 640 8 q 510 2 583 1 q 378 15 436 3 l 379 53 q 238 1 303 -3 q 174 13 201 4 q 115 44 146 21 q 63 106 83 68 q 29 213 43 144 q 15 374 15 281 q 23 493 15 439 q 44 585 31 547 q 76 651 57 622 q 115 696 94 679 q 161 722 136 713 q 209 734 186 732 q 257 735 232 736 q 385 671 335 728 l 385 725 l 629 735 m 381 268 l 382 481 q 276 463 321 486 q 228 393 232 440 q 258 299 224 335 q 374 267 292 263 q 381 268 375 267 z "},"ä":{"ha":678,"x_min":14,"x_max":657,"o":"m 629 735 l 657 11 q 612 5 640 8 q 510 2 583 1 q 378 15 436 3 l 379 53 q 238 1 303 -3 q 174 13 201 4 q 115 44 146 21 q 63 106 83 68 q 29 213 43 144 q 15 374 15 281 q 23 493 15 439 q 44 585 31 547 q 76 651 57 622 q 115 696 94 679 q 161 722 136 713 q 209 734 186 732 q 257 735 232 736 q 385 671 335 728 l 385 725 l 629 735 m 381 268 l 382 481 q 276 463 321 486 q 228 393 232 440 q 258 299 224 335 q 374 267 292 263 q 381 268 375 267 z "},"å":{"ha":678,"x_min":14,"x_max":657,"o":"m 629 735 l 657 11 q 612 5 640 8 q 510 2 583 1 q 378 15 436 3 l 379 53 q 238 1 303 -3 q 174 13 201 4 q 115 44 146 21 q 63 106 83 68 q 29 213 43 144 q 15 374 15 281 q 23 493 15 439 q 44 585 31 547 q 76 651 57 622 q 115 696 94 679 q 161 722 136 713 q 209 734 186 732 q 257 735 232 736 q 385 671 335 728 l 385 725 l 629 735 m 381 268 l 382 481 q 276 463 321 486 q 228 393 232 440 q 258 299 224 335 q 374 267 292 263 q 381 268 375 267 z "},"b":{"ha":676,"x_min":24,"x_max":667,"o":"m 297 743 q 399 735 351 743 q 498 703 447 728 q 584 640 549 679 q 642 532 619 600 q 665 372 665 464 q 648 214 665 282 q 606 108 631 146 q 543 47 581 71 q 475 16 506 24 q 407 6 444 8 q 301 43 354 3 l 303 18 q 175 1 244 3 q 64 7 106 0 l 24 14 l 51 976 l 296 964 l 297 743 m 307 267 q 423 299 389 263 q 453 392 457 335 q 404 456 449 436 q 299 471 360 475 l 300 267 q 307 267 306 267 z "},"c":{"ha":604,"x_min":6,"x_max":590,"o":"m 219 376 q 256 315 221 336 q 342 291 292 293 q 441 292 392 289 q 525 303 490 296 l 560 310 l 574 1 q 503 3 547 1 q 365 19 460 4 q 221 58 269 33 q 151 98 179 79 q 93 144 122 117 q 47 202 64 171 q 18 277 29 233 q 7 375 7 321 q 75 588 6 504 q 261 714 144 672 q 413 746 331 738 q 542 751 494 754 l 589 747 l 560 442 q 453 457 560 442 q 219 376 219 476 z "},"ç":{"ha":604,"x_min":6,"x_max":590,"o":"m 219 376 q 256 315 221 336 q 342 291 292 293 q 441 292 392 289 q 525 303 490 296 l 560 310 l 574 1 q 503 3 547 1 q 365 19 460 4 q 221 58 269 33 q 151 98 179 79 q 93 144 122 117 q 47 202 64 171 q 18 277 29 233 q 7 375 7 321 q 75 588 6 504 q 261 714 144 672 q 413 746 331 738 q 542 751 494 754 l 589 747 l 560 442 q 453 457 560 442 q 219 376 219 476 z "},"d":{"ha":676,"x_min":10,"x_max":653,"o":"m 625 960 l 653 -4 q 608 -11 636 -7 q 506 -15 579 -15 q 374 1 432 -15 l 374 35 q 269 1 326 -3 q 221 6 242 3 q 172 19 200 10 q 124 44 144 29 q 81 85 103 58 q 44 147 58 111 q 20 235 29 182 q 11 356 11 289 q 34 515 11 446 q 92 623 57 583 q 178 687 128 663 q 277 719 229 711 q 379 725 325 726 l 381 947 l 625 960 m 376 250 l 378 472 q 305 465 339 475 q 249 431 271 454 q 224 375 226 407 q 253 281 219 318 q 369 250 288 244 q 376 250 371 250 z "},"e":{"ha":656,"x_min":4,"x_max":646,"o":"m 326 746 q 456 722 399 746 q 545 658 513 697 q 600 571 578 618 q 631 476 622 524 q 642 390 639 429 q 643 325 646 350 l 642 301 l 231 304 q 273 267 233 281 q 366 250 313 253 q 473 248 419 247 q 563 253 526 249 l 600 256 l 611 4 q 589 0 603 3 q 532 -8 575 -3 q 447 -13 489 -12 q 349 -8 406 -14 q 246 10 293 -3 q 151 53 199 24 q 72 123 103 82 q 23 229 40 164 q 11 376 6 294 q 28 479 15 429 q 65 578 40 529 q 124 665 89 628 q 210 724 158 701 q 326 746 263 746 m 229 404 l 447 414 q 444 424 446 418 q 435 447 443 431 q 415 475 426 463 q 379 497 403 488 q 326 507 356 507 q 275 497 296 507 q 246 471 254 486 q 233 441 238 456 q 228 415 228 426 l 229 404 z "},"è":{"ha":656,"x_min":4,"x_max":646,"o":"m 326 746 q 456 722 399 746 q 545 658 513 697 q 600 571 578 618 q 631 476 622 524 q 642 390 639 429 q 643 325 646 350 l 642 301 l 231 304 q 273 267 233 281 q 366 250 313 253 q 473 248 419 247 q 563 253 526 249 l 600 256 l 611 4 q 589 0 603 3 q 532 -8 575 -3 q 447 -13 489 -12 q 349 -8 406 -14 q 246 10 293 -3 q 151 53 199 24 q 72 123 103 82 q 23 229 40 164 q 11 376 6 294 q 28 479 15 429 q 65 578 40 529 q 124 665 89 628 q 210 724 158 701 q 326 746 263 746 m 229 404 l 447 414 q 444 424 446 418 q 435 447 443 431 q 415 475 426 463 q 379 497 403 488 q 326 507 356 507 q 275 497 296 507 q 246 471 254 486 q 233 441 238 456 q 228 415 228 426 l 229 404 z "},"é":{"ha":656,"x_min":4,"x_max":646,"o":"m 326 746 q 456 722 399 746 q 545 658 513 697 q 600 571 578 618 q 631 476 622 524 q 642 390 639 429 q 643 325 646 350 l 642 301 l 231 304 q 273 267 233 281 q 366 250 313 253 q 473 248 419 247 q 563 253 526 249 l 600 256 l 611 4 q 589 0 603 3 q 532 -8 575 -3 q 447 -13 489 -12 q 349 -8 406 -14 q 246 10 293 -3 q 151 53 199 24 q 72 123 103 82 q 23 229 40 164 q 11 376 6 294 q 28 479 15 429 q 65 578 40 529 q 124 665 89 628 q 210 724 158 701 q 326 746 263 746 m 229 404 l 447 414 q 444 424 446 418 q 435 447 443 431 q 415 475 426 463 q 379 497 403 488 q 326 507 356 507 q 275 497 296 507 q 246 471 254 486 q 233 441 238 456 q 228 415 228 426 l 229 404 z "},"ê":{"ha":656,"x_min":4,"x_max":646,"o":"m 326 746 q 456 722 399 746 q 545 658 513 697 q 600 571 578 618 q 631 476 622 524 q 642 390 639 429 q 643 325 646 350 l 642 301 l 231 304 q 273 267 233 281 q 366 250 313 253 q 473 248 419 247 q 563 253 526 249 l 600 256 l 611 4 q 589 0 603 3 q 532 -8 575 -3 q 447 -13 489 -12 q 349 -8 406 -14 q 246 10 293 -3 q 151 53 199 24 q 72 123 103 82 q 23 229 40 164 q 11 376 6 294 q 28 479 15 429 q 65 578 40 529 q 124 665 89 628 q 210 724 158 701 q 326 746 263 746 m 229 404 l 447 414 q 444 424 446 418 q 435 447 443 431 q 415 475 426 463 q 379 497 403 488 q 326 507 356 507 q 275 497 296 507 q 246 471 254 486 q 233 441 238 456 q 228 415 228 426 l 229 404 z "},"ë":{"ha":656,"x_min":4,"x_max":646,"o":"m 326 746 q 456 722 399 746 q 545 658 513 697 q 600 571 578 618 q 631 476 622 524 q 642 390 639 429 q 643 325 646 350 l 642 301 l 231 304 q 273 267 233 281 q 366 250 313 253 q 473 248 419 247 q 563 253 526 249 l 600 256 l 611 4 q 589 0 603 3 q 532 -8 575 -3 q 447 -13 489 -12 q 349 -8 406 -14 q 246 10 293 -3 q 151 53 199 24 q 72 123 103 82 q 23 229 40 164 q 11 376 6 294 q 28 479 15 429 q 65 578 40 529 q 124 665 89 628 q 210 724 158 701 q 326 746 263 746 m 229 404 l 447 414 q 444 424 446 418 q 435 447 443 431 q 415 475 426 463 q 379 497 403 488 q 326 507 356 507 q 275 497 296 507 q 246 471 254 486 q 233 441 238 456 q 228 415 228 426 l 229 404 z "},"f":{"ha":686,"x_min":0,"x_max":710,"o":"m 699 688 q 681 691 692 689 q 639 698 671 693 q 577 704 607 703 q 510 701 547 706 q 443 686 472 697 q 390 651 414 675 q 357 592 367 626 l 569 596 l 569 343 l 347 349 q 361 190 351 274 q 379 61 371 106 l 386 15 l 139 15 q 115 354 124 129 l 28 356 l 0 583 l 117 586 q 142 755 122 685 q 199 876 161 825 q 296 958 236 928 q 451 994 347 986 q 631 999 554 1003 l 708 993 l 699 688 z "},"g":{"ha":736,"x_min":11,"x_max":708,"o":"m 694 707 q 698 635 696 682 q 703 449 700 589 q 706 174 707 310 q 698 -43 706 39 q 670 -175 690 -125 q 624 -248 650 -225 q 551 -290 599 -271 q 399 -321 497 -312 q 231 -328 301 -329 l 160 -325 l 171 -46 q 184 -49 175 -47 q 219 -56 193 -51 q 270 -62 246 -60 q 327 -62 294 -64 q 387 -52 360 -60 q 438 -27 414 -44 q 476 17 463 -10 l 478 50 q 342 -4 413 -1 q 252 3 294 -4 q 165 35 210 10 q 87 99 119 60 q 33 209 54 139 q 13 372 13 279 q 23 494 13 439 q 49 585 33 549 q 91 651 65 622 q 140 695 117 679 q 197 722 164 711 q 255 738 231 733 q 313 746 279 743 q 486 718 372 753 l 486 728 q 511 733 494 731 q 582 730 528 735 q 694 707 636 725 m 481 314 l 483 467 q 346 486 413 494 q 240 357 239 474 q 276 279 242 300 q 356 264 311 258 q 481 314 426 271 z "},"h":{"ha":721,"x_min":8,"x_max":708,"o":"m 446 747 q 556 700 508 743 q 631 592 604 657 q 675 451 657 528 q 698 297 693 374 q 705 158 703 221 q 706 57 707 96 l 703 18 l 432 18 q 433 44 432 28 q 433 107 433 60 q 432 198 433 154 q 426 296 431 242 q 415 390 422 350 q 397 462 408 431 q 369 500 385 493 q 311 473 336 514 q 268 353 286 432 l 263 22 l 50 22 l 8 976 l 279 976 l 274 690 q 446 747 357 754 z "},"i":{"ha":319,"x_min":25,"x_max":300,"o":"m 39 733 l 272 721 l 297 14 l 25 22 l 39 733 m 260 797 q 240 779 260 797 q 163 761 219 761 q 65 797 106 761 q 25 885 25 833 q 65 972 25 936 q 163 1008 106 1008 q 260 972 219 1008 q 300 885 300 936 q 260 797 300 833 z "},"ì":{"ha":319,"x_min":25,"x_max":300,"o":"m 39 733 l 272 721 l 297 14 l 25 22 l 39 733 m 260 797 q 240 779 260 797 q 163 761 219 761 q 65 797 106 761 q 25 885 25 833 q 65 972 25 936 q 163 1008 106 1008 q 260 972 219 1008 q 300 885 300 936 q 260 797 300 833 z "},"í":{"ha":319,"x_min":25,"x_max":300,"o":"m 39 733 l 272 721 l 297 14 l 25 22 l 39 733 m 260 797 q 240 779 260 797 q 163 761 219 761 q 65 797 106 761 q 25 885 25 833 q 65 972 25 936 q 163 1008 106 1008 q 260 972 219 1008 q 300 885 300 936 q 260 797 300 833 z "},"î":{"ha":319,"x_min":25,"x_max":300,"o":"m 39 733 l 272 721 l 297 14 l 25 22 l 39 733 m 260 797 q 240 779 260 797 q 163 761 219 761 q 65 797 106 761 q 25 885 25 833 q 65 972 25 936 q 163 1008 106 1008 q 260 972 219 1008 q 300 885 300 936 q 260 797 300 833 z "},"ï":{"ha":319,"x_min":25,"x_max":300,"o":"m 39 733 l 272 721 l 297 14 l 25 22 l 39 733 m 260 797 q 240 779 260 797 q 163 761 219 761 q 65 797 106 761 q 25 885 25 833 q 65 972 25 936 q 163 1008 106 1008 q 260 972 219 1008 q 300 885 300 936 q 260 797 300 833 z "},"j":{"ha":300,"x_min":-199,"x_max":276,"o":"m 239 715 q 249 634 243 686 q 266 433 256 582 q 276 150 276 283 q 236 -137 276 -37 q 94 -282 196 -236 q -31 -315 42 -307 q -151 -319 -104 -324 l -197 -317 l -187 -47 q -176 -51 -183 -49 q -149 -58 -169 -53 q -108 -63 -128 -62 q -65 -59 -89 -64 q -22 -42 -40 -54 q 13 -3 -3 -29 q 35 61 29 24 q 46 207 44 118 q 44 383 47 296 q 35 550 40 471 q 25 678 29 629 l 19 726 l 239 715 m 206 797 q 186 779 206 797 q 110 761 167 761 q 13 797 53 761 q -28 885 -28 833 q 13 972 -28 936 q 110 1008 53 1008 q 206 972 167 1008 q 246 885 246 936 q 206 797 246 833 z "},"k":{"ha":756,"x_min":21,"x_max":743,"o":"m 640 424 q 743 239 743 364 q 732 129 743 182 q 710 53 721 76 l 699 29 l 468 36 q 474 47 471 40 q 487 77 478 54 q 501 124 496 100 q 506 183 506 147 q 497 253 506 218 q 369 325 479 317 q 306 319 313 328 l 328 32 q 280 24 310 28 q 173 20 250 19 q 38 39 96 21 l 22 976 l 254 982 l 288 556 q 369 565 331 554 q 422 600 407 576 q 435 642 432 617 q 436 686 438 668 l 433 704 l 694 726 q 696 720 694 724 q 700 703 697 717 q 704 677 703 690 q 707 643 706 664 q 706 601 708 622 q 699 554 704 581 q 686 504 694 528 q 640 424 669 457 z "},"l":{"ha":342,"x_min":-81,"x_max":328,"o":"m 254 982 l 326 32 q 279 24 310 28 q 172 20 249 19 q 38 39 96 21 l 25 774 l -50 774 l -81 972 l 254 982 z "},"m":{"ha":1174,"x_min":17,"x_max":1161,"o":"m 900 753 q 1010 705 963 747 q 1084 597 1057 663 q 1128 455 1111 532 q 1151 302 1146 378 q 1159 164 1157 226 q 1158 63 1161 101 l 1157 22 l 886 22 q 888 213 886 22 q 824 504 881 499 q 773 458 794 507 q 742 338 751 410 q 728 192 733 265 q 722 68 724 119 l 722 18 l 451 18 q 452 33 451 24 q 453 74 453 43 q 452 135 453 106 q 450 207 451 165 q 446 285 449 249 q 438 359 443 321 q 427 425 433 397 q 411 473 421 453 q 389 499 401 493 q 323 460 350 517 q 278 301 296 403 l 271 22 l 58 22 l 17 719 l 288 719 l 286 685 q 465 747 372 754 q 643 607 578 739 q 900 753 763 764 z "},"n":{"ha":740,"x_min":17,"x_max":728,"o":"m 465 747 q 576 699 528 742 q 650 592 624 657 q 694 450 676 526 q 717 297 713 374 q 724 158 722 221 q 725 57 726 96 l 722 18 l 451 18 q 452 33 451 24 q 453 74 453 43 q 452 135 453 106 q 450 207 451 165 q 446 285 449 249 q 438 359 443 321 q 427 425 433 397 q 411 473 421 453 q 389 499 401 493 q 323 460 350 517 q 278 301 296 403 l 271 22 l 58 22 l 17 719 l 288 719 l 286 685 q 465 747 372 754 z "},"ñ":{"ha":740,"x_min":17,"x_max":728,"o":"m 465 747 q 576 699 528 742 q 650 592 624 657 q 694 450 676 526 q 717 297 713 374 q 724 158 722 221 q 725 57 726 96 l 722 18 l 451 18 q 452 33 451 24 q 453 74 453 43 q 452 135 453 106 q 450 207 451 165 q 446 285 449 249 q 438 359 443 321 q 427 425 433 397 q 411 473 421 453 q 389 499 401 493 q 323 460 350 517 q 278 301 296 403 l 271 22 l 58 22 l 17 719 l 288 719 l 286 685 q 465 747 372 754 z "},"o":{"ha":731,"x_min":8,"x_max":722,"o":"m 365 753 q 622 646 524 753 q 721 382 721 539 q 703 236 721 301 q 644 117 685 171 q 533 33 604 63 q 365 3 463 3 q 169 56 251 3 q 47 193 86 108 q 8 382 8 278 q 108 646 8 539 q 365 753 208 753 m 369 274 q 472 312 440 274 q 503 411 503 350 q 466 507 503 468 q 369 546 429 546 q 274 507 311 546 q 236 411 236 468 q 271 313 236 353 q 369 274 306 274 z "},"ò":{"ha":731,"x_min":8,"x_max":722,"o":"m 365 753 q 622 646 524 753 q 721 382 721 539 q 703 236 721 301 q 644 117 685 171 q 533 33 604 63 q 365 3 463 3 q 169 56 251 3 q 47 193 86 108 q 8 382 8 278 q 108 646 8 539 q 365 753 208 753 m 369 274 q 472 312 440 274 q 503 411 503 350 q 466 507 503 468 q 369 546 429 546 q 274 507 311 546 q 236 411 236 468 q 271 313 236 353 q 369 274 306 274 z "},"ó":{"ha":731,"x_min":8,"x_max":722,"o":"m 365 753 q 622 646 524 753 q 721 382 721 539 q 703 236 721 301 q 644 117 685 171 q 533 33 604 63 q 365 3 463 3 q 169 56 251 3 q 47 193 86 108 q 8 382 8 278 q 108 646 8 539 q 365 753 208 753 m 369 274 q 472 312 440 274 q 503 411 503 350 q 466 507 503 468 q 369 546 429 546 q 274 507 311 546 q 236 411 236 468 q 271 313 236 353 q 369 274 306 274 z "},"ô":{"ha":731,"x_min":8,"x_max":722,"o":"m 365 753 q 622 646 524 753 q 721 382 721 539 q 703 236 721 301 q 644 117 685 171 q 533 33 604 63 q 365 3 463 3 q 169 56 251 3 q 47 193 86 108 q 8 382 8 278 q 108 646 8 539 q 365 753 208 753 m 369 274 q 472 312 440 274 q 503 411 503 350 q 466 507 503 468 q 369 546 429 546 q 274 507 311 546 q 236 411 236 468 q 271 313 236 353 q 369 274 306 274 z "},"õ":{"ha":731,"x_min":8,"x_max":722,"o":"m 365 753 q 622 646 524 753 q 721 382 721 539 q 703 236 721 301 q 644 117 685 171 q 533 33 604 63 q 365 3 463 3 q 169 56 251 3 q 47 193 86 108 q 8 382 8 278 q 108 646 8 539 q 365 753 208 753 m 369 274 q 472 312 440 274 q 503 411 503 350 q 466 507 503 468 q 369 546 429 546 q 274 507 311 546 q 236 411 236 468 q 271 313 236 353 q 369 274 306 274 z "},"ö":{"ha":731,"x_min":8,"x_max":722,"o":"m 365 753 q 622 646 524 753 q 721 382 721 539 q 703 236 721 301 q 644 117 685 171 q 533 33 604 63 q 365 3 463 3 q 169 56 251 3 q 47 193 86 108 q 8 382 8 278 q 108 646 8 539 q 365 753 208 753 m 369 274 q 472 312 440 274 q 503 411 503 350 q 466 507 503 468 q 369 546 429 546 q 274 507 311 546 q 236 411 236 468 q 271 313 236 353 q 369 274 306 274 z "},"ø":{"ha":731,"x_min":8,"x_max":722,"o":"m 365 753 q 622 646 524 753 q 721 382 721 539 q 703 236 721 301 q 644 117 685 171 q 533 33 604 63 q 365 3 463 3 q 169 56 251 3 q 47 193 86 108 q 8 382 8 278 q 108 646 8 539 q 365 753 208 753 m 369 274 q 472 312 440 274 q 503 411 503 350 q 466 507 503 468 q 369 546 429 546 q 274 507 311 546 q 236 411 236 468 q 271 313 236 353 q 369 274 306 274 z "},"p":{"ha":678,"x_min":24,"x_max":667,"o":"m 443 744 q 507 733 479 742 q 566 701 535 725 q 617 639 597 678 q 651 532 638 600 q 665 372 665 464 q 642 213 665 282 q 584 105 619 144 q 498 41 549 65 q 400 9 447 17 q 297 3 353 1 l 296 -303 l 51 -317 l 24 731 q 69 738 40 733 q 171 742 97 743 q 303 725 244 742 l 303 708 q 443 744 350 750 m 453 353 q 423 447 457 410 q 307 478 389 483 q 300 478 306 478 l 299 268 l 300 268 q 372 272 339 264 q 427 300 404 279 q 453 353 450 321 z "},"q":{"ha":678,"x_min":11,"x_max":654,"o":"m 375 725 q 503 743 433 742 q 614 738 572 744 l 654 731 l 626 -317 l 382 -303 l 381 3 q 278 9 325 1 q 180 41 231 17 q 94 105 129 65 q 35 213 58 144 q 13 372 13 282 q 16 460 13 419 q 26 533 19 500 q 41 592 32 565 q 61 638 50 618 q 84 674 72 658 q 111 701 96 690 q 140 720 126 713 q 171 733 154 728 q 202 740 188 738 q 235 744 217 743 q 375 708 326 750 l 375 725 m 225 353 q 274 283 228 308 q 378 258 321 258 l 376 478 q 371 478 371 478 q 255 447 289 483 q 225 353 221 410 z "},"r":{"ha":665,"x_min":24,"x_max":678,"o":"m 317 724 q 447 741 389 742 q 549 726 506 740 q 620 696 592 713 q 663 665 649 679 l 678 653 l 528 425 q 509 438 521 431 q 462 465 497 444 q 400 493 426 485 q 338 509 374 501 q 289 497 301 517 q 269 465 274 486 l 297 6 l 25 14 l 39 724 l 254 713 l 256 700 q 317 724 289 717 z "},"s":{"ha":674,"x_min":-8,"x_max":667,"o":"m 661 279 q 663 228 667 257 q 653 167 660 199 q 627 107 647 136 q 579 54 607 78 q 505 17 551 31 q 400 3 458 3 q 188 20 290 3 q 39 56 86 38 l -8 72 l 92 310 q 292 263 196 279 q 382 278 379 249 l 378 292 q 342 313 372 303 q 273 333 311 322 q 197 359 235 343 q 133 408 160 375 q 103 489 106 442 q 485 743 85 790 q 577 724 533 738 q 640 701 621 711 l 660 692 l 549 479 q 431 522 481 518 q 377 514 396 525 q 365 475 358 503 q 396 463 367 469 q 466 446 425 457 q 549 417 507 435 q 623 363 590 399 q 661 279 656 326 z "},"t":{"ha":654,"x_min":-4,"x_max":646,"o":"m 635 317 l 644 10 q 617 7 635 8 q 548 4 599 6 q 452 6 497 3 q 355 17 407 8 q 271 44 303 26 q 147 188 181 92 q 111 457 114 283 l -3 460 l 25 688 l 115 690 q 127 852 119 778 q 142 957 135 926 l 147 988 l 383 988 q 347 694 358 850 l 567 700 l 567 447 l 349 453 q 351 428 350 439 q 376 354 358 383 q 417 311 394 325 q 470 292 440 297 q 524 289 500 288 q 574 297 547 290 q 612 308 601 304 q 633 315 622 311 q 635 317 635 317 z "},"u":{"ha":731,"x_min":11,"x_max":711,"o":"m 710 19 l 450 19 l 451 56 q 272 -8 365 -15 q 163 40 210 -3 q 88 148 115 83 q 43 290 61 213 q 20 442 25 367 q 13 581 15 518 q 14 683 11 644 l 15 722 l 286 722 q 285 697 286 713 q 285 633 285 681 q 288 542 286 586 q 293 444 289 499 q 303 350 297 390 q 322 278 310 310 q 349 240 333 247 q 387 244 369 232 q 418 286 404 256 q 442 353 432 317 q 460 438 451 390 l 467 717 l 679 717 l 710 19 z "},"ù":{"ha":731,"x_min":11,"x_max":711,"o":"m 710 19 l 450 19 l 451 56 q 272 -8 365 -15 q 163 40 210 -3 q 88 148 115 83 q 43 290 61 213 q 20 442 25 367 q 13 581 15 518 q 14 683 11 644 l 15 722 l 286 722 q 285 697 286 713 q 285 633 285 681 q 288 542 286 586 q 293 444 289 499 q 303 350 297 390 q 322 278 310 310 q 349 240 333 247 q 387 244 369 232 q 418 286 404 256 q 442 353 432 317 q 460 438 451 390 l 467 717 l 679 717 l 710 19 z "},"ú":{"ha":731,"x_min":11,"x_max":711,"o":"m 710 19 l 450 19 l 451 56 q 272 -8 365 -15 q 163 40 210 -3 q 88 148 115 83 q 43 290 61 213 q 20 442 25 367 q 13 581 15 518 q 14 683 11 644 l 15 722 l 286 722 q 285 697 286 713 q 285 633 285 681 q 288 542 286 586 q 293 444 289 499 q 303 350 297 390 q 322 278 310 310 q 349 240 333 247 q 387 244 369 232 q 418 286 404 256 q 442 353 432 317 q 460 438 451 390 l 467 717 l 679 717 l 710 19 z "},"û":{"ha":731,"x_min":11,"x_max":711,"o":"m 710 19 l 450 19 l 451 56 q 272 -8 365 -15 q 163 40 210 -3 q 88 148 115 83 q 43 290 61 213 q 20 442 25 367 q 13 581 15 518 q 14 683 11 644 l 15 722 l 286 722 q 285 697 286 713 q 285 633 285 681 q 288 542 286 586 q 293 444 289 499 q 303 350 297 390 q 322 278 310 310 q 349 240 333 247 q 387 244 369 232 q 418 286 404 256 q 442 353 432 317 q 460 438 451 390 l 467 717 l 679 717 l 710 19 z "},"ü":{"ha":731,"x_min":11,"x_max":711,"o":"m 710 19 l 450 19 l 451 56 q 272 -8 365 -15 q 163 40 210 -3 q 88 148 115 83 q 43 290 61 213 q 20 442 25 367 q 13 581 15 518 q 14 683 11 644 l 15 722 l 286 722 q 285 697 286 713 q 285 633 285 681 q 288 542 286 586 q 293 444 289 499 q 303 350 297 390 q 322 278 310 310 q 349 240 333 247 q 387 244 369 232 q 418 286 404 256 q 442 353 432 317 q 460 438 451 390 l 467 717 l 679 717 l 710 19 z "},"v":{"ha":760,"x_min":3,"x_max":756,"o":"m 488 713 l 756 732 q 722 414 754 588 q 680 262 708 333 q 609 131 651 190 q 505 38 567 72 q 371 3 443 3 q 269 28 318 3 q 185 94 221 54 q 119 187 149 135 q 71 291 89 239 q 43 392 53 343 q 22 535 32 450 q 7 678 13 621 l 3 733 l 260 714 q 293 435 272 529 q 331 322 306 369 q 379 275 357 274 q 432 328 403 276 q 472 450 461 379 q 481 547 476 481 q 486 663 485 613 l 488 713 z "},"w":{"ha":1067,"x_min":13,"x_max":1053,"o":"m 1029 719 q 1036 658 1032 696 q 1047 528 1040 619 q 1050 378 1053 438 q 1003 190 1044 279 q 888 43 961 100 q 731 -14 815 -14 q 528 139 590 -14 q 336 -7 471 -7 q 116 106 206 -7 q 17 385 26 219 q 17 530 14 444 q 25 671 21 615 l 31 728 l 263 715 q 259 663 261 694 q 255 545 257 631 q 260 428 253 460 q 351 281 278 279 q 435 443 432 283 q 432 517 435 476 q 425 583 429 558 l 422 608 l 643 610 q 639 580 642 599 q 633 515 636 561 q 632 436 629 469 q 655 317 636 363 q 714 275 674 272 q 747 283 733 275 q 769 301 761 292 q 785 332 778 311 q 796 367 793 353 q 804 408 799 381 q 807 421 806 417 q 811 467 810 440 q 811 519 813 493 q 807 574 810 546 q 801 625 804 601 q 796 667 799 649 q 790 696 793 685 l 789 707 l 1029 719 z "},"x":{"ha":715,"x_min":14,"x_max":700,"o":"m 604 431 q 682 243 682 368 q 678 172 682 206 q 669 115 675 139 q 657 71 664 92 q 644 38 650 50 q 631 16 638 25 q 622 3 625 7 l 618 0 l 388 39 q 454 231 449 183 q 440 293 458 269 q 357 328 422 317 q 302 313 324 322 q 272 290 281 303 q 261 263 264 278 q 261 231 258 247 q 280 162 264 210 q 311 76 296 114 l 326 39 l 96 0 q 89 7 93 1 q 74 33 85 13 q 54 78 63 53 q 39 148 46 104 q 32 243 32 192 q 110 431 32 368 q 15 571 15 476 q 26 654 15 614 q 46 713 36 694 l 57 731 l 271 725 q 265 703 268 717 q 262 647 261 689 q 275 564 263 606 q 305 523 283 540 q 357 506 326 506 q 406 528 386 507 q 435 576 426 550 q 447 626 443 601 q 451 669 451 651 q 450 699 451 686 q 446 718 449 713 l 444 725 l 658 731 q 669 711 663 724 q 688 656 676 699 q 699 571 699 614 q 604 431 699 476 z "},"y":{"ha":717,"x_min":11,"x_max":689,"o":"m 675 714 q 678 642 676 688 q 684 456 681 596 q 687 181 688 317 q 678 -37 686 46 q 651 -169 671 -119 q 605 -242 631 -219 q 532 -285 579 -265 q 380 -315 478 -307 q 211 -321 282 -324 l 140 -318 l 151 -40 q 178 -47 161 -43 q 239 -54 194 -50 q 321 -55 283 -58 q 399 -32 358 -51 q 457 22 439 -12 l 458 67 q 272 -1 369 -10 q 163 46 210 3 q 88 153 115 89 q 43 295 61 218 q 20 449 25 372 q 13 588 15 525 q 14 689 11 650 l 15 728 l 286 728 q 285 702 286 718 q 285 639 285 686 q 288 549 286 592 q 293 451 289 506 q 303 356 297 397 q 322 284 310 315 q 349 246 333 253 q 376 244 364 242 q 400 263 389 247 q 420 297 411 278 q 438 344 429 317 q 452 400 446 372 q 464 461 458 428 l 465 633 l 467 733 q 492 738 475 736 q 563 736 508 740 q 675 714 617 732 z "},"ý":{"ha":717,"x_min":11,"x_max":689,"o":"m 675 714 q 678 642 676 688 q 684 456 681 596 q 687 181 688 317 q 678 -37 686 46 q 651 -169 671 -119 q 605 -242 631 -219 q 532 -285 579 -265 q 380 -315 478 -307 q 211 -321 282 -324 l 140 -318 l 151 -40 q 178 -47 161 -43 q 239 -54 194 -50 q 321 -55 283 -58 q 399 -32 358 -51 q 457 22 439 -12 l 458 67 q 272 -1 369 -10 q 163 46 210 3 q 88 153 115 89 q 43 295 61 218 q 20 449 25 372 q 13 588 15 525 q 14 689 11 650 l 15 728 l 286 728 q 285 702 286 718 q 285 639 285 686 q 288 549 286 592 q 293 451 289 506 q 303 356 297 397 q 322 284 310 315 q 349 246 333 253 q 376 244 364 242 q 400 263 389 247 q 420 297 411 278 q 438 344 429 317 q 452 400 446 372 q 464 461 458 428 l 465 633 l 467 733 q 492 738 475 736 q 563 736 508 740 q 675 714 617 732 z "},"ÿ":{"ha":717,"x_min":11,"x_max":689,"o":"m 675 714 q 678 642 676 688 q 684 456 681 596 q 687 181 688 317 q 678 -37 686 46 q 651 -169 671 -119 q 605 -242 631 -219 q 532 -285 579 -265 q 380 -315 478 -307 q 211 -321 282 -324 l 140 -318 l 151 -40 q 178 -47 161 -43 q 239 -54 194 -50 q 321 -55 283 -58 q 399 -32 358 -51 q 457 22 439 -12 l 458 67 q 272 -1 369 -10 q 163 46 210 3 q 88 153 115 89 q 43 295 61 218 q 20 449 25 372 q 13 588 15 525 q 14 689 11 650 l 15 728 l 286 728 q 285 702 286 718 q 285 639 285 686 q 288 549 286 592 q 293 451 289 506 q 303 356 297 397 q 322 284 310 315 q 349 246 333 253 q 376 244 364 242 q 400 263 389 247 q 420 297 411 278 q 438 344 429 317 q 452 400 446 372 q 464 461 458 428 l 465 633 l 467 733 q 492 738 475 736 q 563 736 508 740 q 675 714 617 732 z "},"z":{"ha":644,"x_min":15,"x_max":636,"o":"m 233 400 q 270 435 253 417 q 300 467 288 453 q 323 496 313 482 q 340 520 333 510 q 352 538 347 531 q 360 550 357 546 l 363 554 q 142 535 193 543 l 21 513 l 35 714 q 51 718 38 715 q 149 725 65 721 q 367 728 233 729 q 441 726 401 728 q 511 723 481 725 q 567 719 542 721 q 607 717 593 718 l 622 715 q 574 544 599 617 q 492 392 549 471 q 354 268 436 313 q 606 290 335 258 l 636 17 l 15 22 l 33 275 q 40 277 36 275 q 58 286 44 279 q 87 300 72 293 q 121 318 101 307 q 158 341 140 329 q 197 368 176 353 q 233 400 217 383 z "},"{":{"ha":788,"x_min":69,"x_max":718,"o":"m 704 901 q 668 901 690 901 q 590 886 646 900 q 495 845 535 872 q 431 755 456 818 q 421 604 406 692 q 419 559 425 579 q 404 527 414 539 q 383 507 394 515 q 364 496 372 499 l 357 493 q 375 477 364 488 q 403 440 386 467 q 418 393 421 414 q 419 263 408 319 q 453 176 429 207 q 508 126 478 146 q 572 100 539 106 q 632 93 604 94 q 676 94 660 92 l 694 99 l 701 -157 q 557 -141 626 -157 q 419 -86 488 -125 q 303 12 351 -47 q 228 166 256 71 q 208 382 201 261 q 174 390 208 388 q 104 390 139 392 l 69 389 l 82 628 q 104 624 90 626 q 147 617 118 621 q 196 617 176 614 q 215 632 215 621 q 240 839 210 747 q 324 986 271 931 q 447 1078 376 1042 q 583 1128 517 1114 q 718 1142 650 1142 l 704 901 z "},"|":{"ha":333,"x_min":29,"x_max":301,"o":"m 29 1140 l 301 1126 l 288 -149 l 54 -125 l 29 1140 z "},"}":{"ha":788,"x_min":69,"x_max":718,"o":"m 706 628 l 718 389 q 648 390 718 390 q 579 382 578 390 q 559 166 586 261 q 484 12 532 71 q 368 -86 436 -47 q 231 -141 300 -125 q 86 -157 161 -157 l 93 99 q 110 95 99 97 q 155 93 122 93 q 216 99 188 93 q 278 125 244 106 q 333 176 311 144 q 367 263 356 207 q 369 393 378 319 q 382 439 367 414 q 414 479 397 464 l 431 493 q 422 497 428 494 q 404 508 417 499 q 383 528 392 517 q 368 559 374 539 q 367 604 363 579 q 368 719 378 671 q 334 801 358 768 q 278 853 310 833 q 212 883 246 874 q 149 897 178 893 q 101 901 119 901 l 83 901 l 69 1142 q 203 1128 136 1142 q 340 1078 269 1114 q 463 986 411 1042 q 547 839 515 931 q 572 632 578 747 q 605 616 571 617 q 672 622 639 615 l 706 628 z "},"~":{"ha":714,"x_min":21,"x_max":692,"o":"m 676 571 q 689 503 686 538 q 682 437 692 469 q 651 378 672 404 q 592 334 631 351 q 500 314 554 317 q 403 335 453 310 q 326 389 354 361 q 268 453 299 417 q 238 492 238 490 q 215 494 224 504 q 208 465 206 485 q 218 410 211 436 q 229 374 225 385 l 233 361 l 61 297 q 49 317 57 303 q 32 385 42 331 q 26 511 22 440 q 99 663 33 618 q 247 682 164 707 q 334 638 293 669 q 398 577 375 607 q 442 522 421 547 q 474 492 463 496 q 504 498 496 485 q 510 533 513 511 q 502 560 510 543 q 484 594 494 576 q 463 627 474 611 q 446 654 453 643 l 439 664 l 586 736 q 676 571 654 638 z "}," ":{"ha":414,"x_min":0,"x_max":0,"o":""},"­":{"ha":0,"x_min":0,"x_max":0,"o":""},"‘":{"ha":324,"x_min":22,"x_max":307,"o":"m 301 789 q 278 711 306 744 q 203 670 250 678 q 97 686 157 663 q 46 732 65 700 q 24 802 26 764 q 31 877 22 840 q 66 942 40 914 q 128 981 92 971 q 151 985 139 983 q 174 988 164 988 q 194 988 185 989 q 210 987 203 988 q 224 985 218 986 q 232 983 229 985 l 235 983 l 228 890 q 222 890 225 890 q 208 887 218 889 q 191 881 199 885 q 176 870 183 878 q 165 853 168 863 q 196 861 175 860 q 240 858 217 863 q 281 836 263 854 q 301 789 299 818 z "},"’":{"ha":322,"x_min":17,"x_max":304,"o":"m 225 992 q 285 929 265 974 q 300 838 304 885 q 268 751 296 792 q 196 697 240 710 q 143 690 169 690 q 103 692 117 689 l 89 694 l 96 788 q 101 789 97 789 q 115 791 106 789 q 133 797 125 793 q 148 808 140 800 q 158 825 156 815 q 135 818 150 821 q 102 817 121 815 q 66 826 83 819 q 36 849 49 833 q 21 889 24 865 q 45 967 17 933 q 120 1008 74 1001 q 225 992 167 1015 z "},"‚":{"ha":324,"x_min":17,"x_max":304,"o":"m 225 265 q 285 203 265 247 q 300 112 304 158 q 268 24 296 65 q 196 -29 240 -17 q 143 -37 169 -36 q 103 -35 117 -37 l 89 -32 l 96 61 q 101 61 97 61 q 115 64 106 61 q 133 70 125 67 q 148 81 140 74 q 158 99 156 88 q 128 90 149 92 q 84 93 107 89 q 42 115 61 97 q 21 163 24 133 q 45 240 17 207 q 120 281 74 274 q 225 265 167 289 z "},"“":{"ha":624,"x_min":22,"x_max":607,"o":"m 603 789 q 578 711 607 744 q 503 670 550 678 q 399 686 457 663 q 347 732 367 700 q 325 802 328 764 q 331 877 322 840 q 366 942 340 914 q 428 981 392 971 q 480 988 453 988 q 521 986 507 989 l 535 983 l 528 890 q 524 890 526 890 q 517 889 522 890 q 506 886 511 888 q 494 882 501 885 q 482 876 488 879 q 472 866 476 872 q 465 853 467 860 q 496 861 475 860 q 540 858 517 863 q 581 836 563 854 q 603 789 600 818 m 165 853 q 196 861 175 860 q 240 858 217 863 q 281 836 263 854 q 301 789 299 818 q 278 711 306 744 q 203 670 250 678 q 97 686 157 663 q 46 732 65 700 q 24 802 26 764 q 31 877 22 840 q 66 942 40 914 q 128 981 92 971 q 151 985 139 983 q 174 988 164 988 q 194 988 185 989 q 210 987 203 988 q 224 985 218 986 q 232 983 229 985 l 235 983 l 228 890 q 222 890 225 890 q 208 887 218 889 q 191 881 199 885 q 176 870 183 878 q 165 853 168 863 z "},"”":{"ha":621,"x_min":15,"x_max":603,"o":"m 224 1003 q 283 940 264 985 q 299 849 303 896 q 267 762 294 803 q 194 708 239 721 q 142 701 168 701 q 101 703 115 700 l 88 706 l 94 799 q 97 799 96 799 q 105 801 99 800 q 116 803 111 801 q 128 807 121 804 q 140 813 135 810 q 151 823 146 817 q 157 836 156 829 q 126 828 147 831 q 83 831 106 826 q 41 853 60 835 q 19 900 22 871 q 44 978 15 944 q 119 1019 72 1013 q 224 1003 165 1026 m 524 1003 q 583 940 564 985 q 599 849 603 896 q 567 762 594 803 q 494 708 539 721 q 442 701 469 701 q 401 703 415 700 l 388 706 l 394 799 q 401 799 397 799 q 414 802 404 800 q 431 808 424 804 q 447 819 439 811 q 457 836 454 826 q 426 828 447 831 q 383 831 406 826 q 342 853 360 835 q 321 900 324 871 q 344 978 315 944 q 419 1019 372 1013 q 524 1003 465 1026 z "},"„":{"ha":624,"x_min":17,"x_max":603,"o":"m 225 265 q 285 203 265 247 q 300 112 304 158 q 268 24 296 65 q 196 -29 240 -17 q 143 -37 169 -36 q 103 -35 117 -37 l 89 -32 l 96 61 q 101 61 97 61 q 115 64 106 61 q 133 70 125 67 q 148 81 140 74 q 158 99 156 88 q 128 90 149 92 q 84 93 107 89 q 42 115 61 97 q 21 163 24 133 q 45 240 17 207 q 120 281 74 274 q 225 265 167 289 m 525 265 q 571 228 553 253 q 595 174 589 203 q 599 112 601 144 q 584 51 596 79 q 549 1 572 22 q 496 -29 526 -21 q 444 -37 471 -36 q 403 -35 417 -37 l 389 -32 l 396 61 q 402 61 399 61 q 415 64 406 61 q 433 70 425 67 q 448 81 440 74 q 458 99 456 88 q 428 90 449 92 q 384 93 407 89 q 343 115 361 97 q 322 163 325 133 q 345 240 317 207 q 420 281 374 274 q 525 265 467 289 z "}}}
